<svg xmlns="http://www.w3.org/2000/svg" viewBox="0 0 24 24" xmlns:v="https://vecta.io/nano"><path fill="#e53238" d="M3.103 9.29C1.411 9.29 0 10.008 0 12.175c0 1.717.949 2.797 3.147 2.797 2.588 0 2.754-1.705 2.754-1.705H4.647s-.269.918-1.576.918c-1.065 0-1.831-.719-1.831-1.728h4.792v-.633c0-.996-.633-2.534-2.929-2.534h0zm-.043.809c1.014 0 1.705.621 1.705 1.552H1.268c0-.989.902-1.552 1.792-1.552z"/><path fill="#0064d2" d="M6.031 7.192v6.692l-.027.913H7.2s.043-.383.043-.733c0 0 .591.924 2.198.924 1.692 0 2.841-1.175 2.841-2.858 0-1.566-1.056-2.825-2.838-2.825-1.669 0-2.188.901-2.188.901V7.192H6.031zm3.103 2.942c1.149 0 1.88.853 1.88 1.997 0 1.227-.844 2.03-1.871 2.03-1.226 0-1.888-.958-1.888-2.019 0-.989.593-2.008 1.879-2.008h0z"/><path fill="#f5af02" d="M15.254 9.29c-2.547 0-2.71 1.394-2.71 1.617h1.268s.066-.814 1.355-.814c.837 0 1.486.383 1.486 1.12v.262h-1.486c-1.973 0-3.016.577-3.016 1.748 0 1.153.964 1.78 2.266 1.78 1.775 0 2.347-.981 2.347-.981l.03.775h1.127l-.044-.781v-2.635c-.001-1.728-1.394-2.091-2.623-2.091zm1.398 2.972v.35c0 .456-.281 1.59-1.938 1.59-.907 0-1.296-.453-1.296-.978 0-.956 1.31-.962 3.234-.962h0z"/><path fill="#86b817" d="M17.194 9.509h1.426l2.047 4.1 2.042-4.1H24l-3.719 7.3h-1.355l1.073-2.035-2.805-5.265h0z"/></svg>