<svg xmlns="http://www.w3.org/2000/svg" height="512" width="512" xmlns:v="https://vecta.io/nano"><path d="M239.733 241.791s-5.078-1.017-4.571 1.945c0 0 8.294 12.36 15.746 14.729 0 0 3.896 1.693 7.956 0 0 0 8.637-3.553 15.321-12.525 0 0 2.454-3.556-1.438-3.641 0 0-24.55 3.047-33.014-.508zm189.912 30.472c6.729 1.016 17.523 7.999 17.523 7.999 2.284 1.65 13.076 6.095 13.076 6.095 12.711 4.62 19.987 3.286 23.907 1.277 1.026-7.825 1.665-15.771 1.88-23.82-17.466 10.461-35.391-.607-35.391-.607-3.724-1.692-14.139-7.449-14.139-7.449-11.937-7.617-23.109-6.094-23.109-6.094 0-1.523-5.077-11.936-5.077-11.936 3.389-2.286 11.68-1.946 11.68-1.946 7.45.167 21.671 8.972 21.671 8.972 14.518 7.291 17.943 8.272 17.943 8.272 12.675 5.45 22.15-1.277 26.299-5.245-5.069-122.609-106.054-220.456-229.905-220.456-123.796 0-224.742 97.754-229.901 220.276 4.05 3.94 13.621 10.955 26.481 5.424 0 0 3.432-.981 17.95-8.272 0 0 14.218-8.805 21.663-8.972 0 0 8.297-.34 11.682 1.946 0 0-5.077 10.412-5.077 11.936 0 0-11.173-1.523-23.109 6.094 0 0-10.412 5.757-14.133 7.449 0 0-18.066 11.151-35.594.489a231.57 231.57 0 0 0 1.867 23.82c3.867 2.071 11.168 3.551 24.118-1.159 0 0 10.795-4.444 13.075-6.095 0 0 10.795-6.983 17.524-7.999 0 0 4.951-.762 7.743 0l-2.282 12.951s-8.636.412-14.983 4.27c0 0-8.573 4.223-12.824 7.156 0 0-16.01 9.931-29.464 8.028a227.17 227.17 0 0 0 4.493 17.881c3.281.734 9.024.826 17.862-2.928 0 0 6.474-2.921 16.249-9.396 0 0 8.506-4.315 16.632-3.681l-1.269 11.806s-6.984-.186-13.714 4.605c0 0-15.366 12.298-31.091 13.774 2.173 5.912 4.593 11.708 7.22 17.385 3.171.078 9.071-.851 16.382-7.069 0 0 7.873-6.221 10.792-7.109 0 0 5.334-2.921 11.681-1.777l2.668 11.553s-9.649 1.905-14.349 5.587c0 0-7.683 5.6-11.3 7.491 0 0-3.77 2.835-9.938 3.216 3.038 5.673 6.31 11.2 9.796 16.576 7.833-5.573 25.166-16.858 32.899-13.569l-4.316-14.476s11.68 2.286 24.632-7.872l11.424-8.771s-1.523-19.855 23.364-49.472c0 0 8.632-11.843 2.792-29.871 0 0-23.109-54.342 15.489-79.989 0 0-24.377 21.391-7.108 75.446 0 0 10.663 19.271-3.303 38.315 0 0-20.062 22.883-22.346 44.58 0 0-1.014 14.841 12.445 34.649 0 0-19.556 19.807-33.013 23.361 0 0-8.126 2.285-11.936 0l-4.571-13.459s-8.125-1.016-15.997 3.302c0 0-8.266 4.805-13.23 8.3 3.413 4.675 6.998 9.213 10.746 13.609 4.141-3.182 14.073-9.962 21.528-8.196l6.351 9.014s-13.628.024-20.349 7.591c4.48 4.765 9.162 9.34 14.035 13.707 2.851-2.396 7.395-5.403 12.404-5.554l7.621 8.506s-5.75 2.567-9.163 6.215c7.529 5.963 15.436 11.471 23.687 16.466 6.106-16.669 18.489-32.33 18.489-32.33 8.888-11.681 7.87-30.979 7.87-30.979 13.713 16.506-6.857 41.582-6.857 41.582-6.884 4.813-10.392 17.215-12.071 26.027a231.1 231.1 0 0 0 12.496 6.465c1.739-8.066 6.446-20.72 18.533-38.522 0 0 17.866-18.538 5.168-36.313 0 0-1.523-6.857-13.964-20.823 0 0-26.193-25.649-10.686-50.534 0 0 11.192-18.03 20.588-26.916 0 0 11.679-15.745 1.521-35.806 0 0-30.473-47.992 13.203-88.115 0 0-32.502 38.912-3.298 85.858 0 0 12.948 22.571-5.588 42.379 0 0-33.772 36.312-13.205 62.215l11.936 14.221s25.394 24.377 6.857 54.087c0 0-19.792 24.08-18.423 43.84a226.74 226.74 0 0 0 17.716 6.367c-.971-8.613-.169-22.923 10.355-39.796 0 0 23.36-30.725 9.905-51.04 0 0-4.826-10.411-15.493-21.332 0 0-26.154-24.886-2.031-56.373 0 0 26.157-24.378 14.728-47.739 0 0-39.104-64.754 7.62-97.003 0 0-32.247 31.995-6.095 79.228 0 0 21.333 38.344 3.554 54.088 0 0-30.363 34.027-13.784 56.119l13.533 17.269s24.122 25.14 6.096 55.357c0 0-12.698 22.094-13.208 23.87 0 0-6.043 9.758-2.099 31.007 6.041 1.504 12.172 2.768 18.393 3.778-3.387-8.421-5.627-20.229-1.056-33.77 0 0 8.633-18.962 12.187-23.361 0 0 15.575-25.057 5.757-41.479 0 0-.507-4.063-14.221-21.837 0 0-25.052-23.867-10.499-43.846 0 0 17.105-23.886 18.118-31.834 0 0 2.368-10.657 14.559-1.177 0 0 10.155 4.693 23.189-1.378 0 0 9.146-6.238 13.04.277 0 0 4.736 11.26 18.112 27.681 0 0 19.807 20.989-3.728 47.06 0 0-29.623 26.581-18.449 51.805 0 0 22.081 37.479 22.347 54.342 0 0-.232 8.832-3.559 17.319 5.88-.988 11.684-2.198 17.4-3.628 3.929-21.218-2.105-30.959-2.105-30.959-.509-1.776-13.206-23.87-13.206-23.87-18.028-30.218 6.096-55.357 6.096-55.357 2.285-2.54 13.532-17.269 13.532-17.269 16.578-22.092-13.783-56.119-13.783-56.119-17.78-15.744 3.555-54.088 3.555-54.088 26.154-47.232-6.096-79.228-6.096-79.228 46.723 32.249 7.619 97.003 7.619 97.003-11.429 23.361 14.727 47.739 14.727 47.739 24.122 31.487-2.029 56.373-2.029 56.373-10.667 10.921-15.494 21.332-15.494 21.332-13.456 20.315 9.907 51.04 9.907 51.04 10.496 16.829 11.32 31.111 10.358 39.734 6.018-1.889 11.922-4.029 17.717-6.385 1.309-19.744-18.428-43.761-18.428-43.761-18.538-29.71 6.857-54.087 6.857-54.087 1.774-2.032 11.935-14.221 11.935-14.221 20.567-25.903-13.204-62.215-13.204-62.215-18.537-19.808-5.588-42.379-5.588-42.379 29.203-46.946-3.302-85.858-3.302-85.858 43.678 40.123 13.207 88.115 13.207 88.115-10.162 20.061 1.523 35.806 1.523 35.806 9.394 8.886 20.581 26.916 20.581 26.916 15.512 24.885-10.681 50.534-10.681 50.534-12.442 13.966-13.966 20.823-13.966 20.823-12.697 17.774 5.169 36.313 5.169 36.313 12.045 17.742 16.763 30.371 18.515 38.438a227.76 227.76 0 0 0 12.496-6.479c-1.688-8.804-5.196-21.137-12.054-25.929 0 0-20.571-25.076-6.857-41.582 0 0-1.017 19.299 7.87 30.979 0 0 12.337 15.602 18.455 32.239 8.23-4.997 16.122-10.504 23.633-16.458-3.422-3.604-9.079-6.132-9.079-6.132l7.62-8.506c4.955.15 9.448 3.09 12.309 5.476 4.873-4.381 9.559-8.964 14.041-13.735-6.755-7.46-20.255-7.484-20.255-7.484l6.347-9.014c7.382-1.75 17.197 4.887 21.411 8.109 3.746-4.396 7.327-8.935 10.736-13.609-4.975-3.489-13.103-8.213-13.103-8.213-7.872-4.317-16-3.302-16-3.302l-4.568 13.459c-3.81 2.285-11.931 0-11.931 0-13.459-3.555-33.014-23.361-33.014-23.361 13.459-19.809 12.446-34.649 12.446-34.649-2.286-21.697-22.348-44.58-22.348-44.58-13.966-19.045-3.303-38.315-3.303-38.315 17.269-54.056-7.108-75.446-7.108-75.446 38.598 25.647 15.49 79.989 15.49 79.989-5.841 18.028 2.791 29.871 2.791 29.871 24.884 29.616 23.36 49.472 23.36 49.472l11.428 8.771c12.949 10.158 24.629 7.872 24.629 7.872l-4.316 14.476c7.692-3.271 24.874 7.871 32.771 13.475a230.04 230.04 0 0 0 9.742-16.491c-6.06-.424-9.755-3.206-9.755-3.206-3.62-1.892-11.3-7.491-11.3-7.491-4.7-3.682-14.35-5.587-14.35-5.587l2.668-11.553c6.348-1.144 11.682 1.777 11.682 1.777 2.919.889 10.793 7.109 10.793 7.109 7.163 6.095 12.977 7.105 16.188 7.07 2.633-5.679 5.056-11.479 7.228-17.398-15.662-1.557-30.908-13.762-30.908-13.762-6.728-4.791-13.712-4.605-13.712-4.605l-1.27-11.806c8.127-.635 16.632 3.681 16.632 3.681 9.776 6.475 16.254 9.396 16.254 9.396 8.642 3.672 14.336 3.669 17.651 2.978a228.66 228.66 0 0 0 4.505-17.899c-13.414 1.777-29.269-8.06-29.269-8.06-4.251-2.934-12.824-7.156-12.824-7.156-6.347-3.857-14.981-4.27-14.981-4.27l-2.283-12.951c2.796-.762 7.747 0 7.747 0zm-314.592-54.088c-17.016-3.556-42.915 9.396-42.915 9.396-27.168 15.236-37.33 2.54-37.33 2.54l21.08-32.505c21.835-34.788 14.472-55.611 14.472-55.611-.763-8.887 5.587-5.331 5.587-5.331 24.377 14.728 24.634 43.423 24.634 43.423 44.182-24.633 58.147-5.334 58.147-5.334-19.042 8.887-43.675 43.422-43.675 43.422zm98.018-24.039s4.907-7.278 18.112-1.185c0 0 8.126 4.569 7.619 8.464 0 0-.17 3.386-5.587 0 0 0-9.308-4.148-14.217-.169 0 0-2.286 3.979-6.432.086-.001 0-2.879-3.726.505-7.196zm85.322-9.31s-20.316-4.909-29.71 1.777c0 0-12.355 6.519-5.923 29.118 0 0 .9 4.506 4.801-.912.059-.088.125-.18.191-.274 4.061-5.84 6.264-6.263 10.836-3.471 0 0 8.207 2.286 14.472-.168 0 0 1.692-3.979 4.571.592 0 0 .976 1.862 1.885 2.709 0 0 3.833 5.757 0 15.236 0 0-1.97 4.484-5.184 14.643 0 0-8.299 20.99-26.58 30.558 0 0-10.58 5.415-25.226 0 0 0-17.775-8.126-25.648-26.748 0 0-10.239-20.133-7.867-32.033 0 0 2.792-9.188 9.226-6.903 0 0 5.583 3.893 14.727.762 0 0 6.688-3.047 8.631 1.777 0 0 2.205 4.824 4.491-.762 0 0 3.212-7.11.333-17.86 0 0-1.096-9.311-17.94-9.734 0 0-8.043.17-11.009.933 0 0-8.291 2.793-2.705-8.551 0 0 8.672-20.823 41.071-20.823 0 0 32.951-1.69 43.681 23.024-.001-.001 4.128 8.632-1.124 7.11zm-.018 16.506c-4.146 3.894-6.434-.086-6.434-.086-4.909-3.979-14.221.169-14.221.169-5.416 3.386-5.588 0-5.588 0-.508-3.895 7.617-8.464 7.617-8.464 13.209-6.094 18.118 1.185 18.118 1.185 3.386 3.47.508 7.196.508 7.196zm44.684-35.975c.224 4.823-6.068 1.014-6.068 1.014-87.607-41.645-159.638 0-159.638 0-9.946 6.223-8.847-4.824-8.847-4.824-5.461-22.981-17.497-37.327-17.497-37.327-7.847-7.11.863-5.714.863-5.714 18.03 2.031 32.759 11.554 32.759 11.554 2.54-11.681-9.268-27.933-9.268-27.933-4.571-5.967 5.713-4.571 5.713-4.571 21.401 7.571 36.197 17.267 44.939 24.163L236.942 92.9l-24.891-21.816 32.172-.867 11.343-28.103 11.51 27.425 32.494 1.526-24.877 22.175 10.861 26.025c21.069-16.23 46.229-22.344 46.229-22.344 8.511-1.27 3.305 5.459 3.305 5.459-9.017 15.998-6.985 26.154-6.985 26.154 15.617-8.506 30.979-10.791 30.979-10.791 9.525-1.904 2.104 5.204 2.104 5.204-18.593 20.952-18.127 42.41-18.127 42.41zm54.087 52.818s-24.632-34.535-43.677-43.423c0 0 13.966-19.299 58.148 5.334 0 0 .251-28.695 24.628-43.423 0 0 6.352-3.556 5.588 5.331 0 0-7.363 20.823 14.473 55.611l21.079 32.505s-10.156 12.696-37.33-2.54c.001 0-25.901-12.951-42.909-9.395zm-165.971-92.124c3.011 2.704 4.499 4.39 4.499 4.39 12.186-2.538 38.598-.889 38.598-.889a79.64 79.64 0 0 1 3.842-3.909l-22.547-18.521-24.392 18.929zm15.078 102.789c-3.048 3.216 0 4.825 0 4.825 6.347 2.708 16.676 0 16.676 0 5.753-3.724 2.961-5.248 2.961-5.248-2.879-2.964-9.888-2.962-9.888-2.962-4.808-.339-9.749 3.385-9.749 3.385z" fill-rule="evenodd" fill="#00684d"/></svg>