<svg xmlns="http://www.w3.org/2000/svg" width="724.53" height="724.53" viewBox="-4.541 -4.541 151.36 151.36" xmlns:v="https://vecta.io/nano"><path d="M97.198 73.86l-1.245.121c-1.584.255-2.055.684-2.055 2.634v15.382c0 2.097 1.306 2.222 3.149 2.326 4.498.255 7.11-3.74 7.11-10.201s-2.595-10.262-6.959-10.262c0 0-.835.056-1.245.121-1.584.255-2.055.684-2.055 2.634v15.382c0 2.097 1.306 2.222 3.149 2.326 4.498.255 7.11-3.74 7.11-10.201s-2.595-10.262-6.959-10.262m-47.212.225c-4.034 0-6.525 3.849-6.525 10.228 0 6.236 2.451 10.011 6.599 10.011 4.035 0 6.565-3.922 6.565-10.08 0-6.236-2.569-10.159-6.639-10.159m24.076 0c-4.035 0-6.531 3.849-6.531 10.228 0 6.236 2.457 10.011 6.604 10.011 4.031 0 6.561-3.922 6.561-10.08 0-6.236-2.565-10.159-6.634-10.159m23.136-.225s-.835.056-1.245.121c-1.584.255-2.055.684-2.055 2.634v15.382c0 2.097 1.306 2.222 3.149 2.326 4.498.255 7.11-3.74 7.11-10.201s-2.595-10.262-6.959-10.262c0 0-.835.056-1.245.121-1.584.255-2.055.684-2.055 2.634v15.382c0 2.097 1.306 2.222 3.149 2.326 4.498.255 7.11-3.74 7.11-10.201s-2.595-10.262-6.959-10.262m-23.136.225c-4.035 0-6.531 3.849-6.531 10.228 0 6.236 2.457 10.011 6.604 10.011 4.031 0 6.561-3.922 6.561-10.08 0-6.236-2.565-10.159-6.634-10.159m-24.076 0c-4.034 0-6.525 3.849-6.525 10.228 0 6.236 2.451 10.011 6.599 10.011 4.035 0 6.565-3.922 6.565-10.08 0-6.236-2.569-10.159-6.639-10.159m3.296 36.15a178.69 178.69 0 0 1-1.072-2.215c-.1-.207-.35-.22-.441.009-.104.255-.995 2.046-1.055 2.175-.1.213.013.351.216.351h2.131c.156 0 .311-.139.221-.32m-3.296-36.15c-4.034 0-6.525 3.849-6.525 10.228 0 6.236 2.451 10.011 6.599 10.011 4.035 0 6.565-3.922 6.565-10.08 0-6.236-2.569-10.159-6.639-10.159m24.076 0c-4.035 0-6.531 3.849-6.531 10.228 0 6.236 2.457 10.011 6.604 10.011 4.031 0 6.561-3.922 6.561-10.08 0-6.236-2.565-10.159-6.634-10.159m23.136-.225s-.835.056-1.245.121c-1.584.255-2.055.684-2.055 2.634v15.382c0 2.097 1.306 2.222 3.149 2.326 4.498.255 7.11-3.74 7.11-10.201s-2.595-10.262-6.959-10.262c0 0-.835.056-1.245.121-1.584.255-2.055.684-2.055 2.634v15.382c0 2.097 1.306 2.222 3.149 2.326 4.498.255 7.11-3.74 7.11-10.201s-2.595-10.262-6.959-10.262m-23.136.225c-4.035 0-6.531 3.849-6.531 10.228 0 6.236 2.457 10.011 6.604 10.011 4.031 0 6.561-3.922 6.561-10.08 0-6.236-2.565-10.159-6.634-10.159m-24.076 0c-4.034 0-6.525 3.849-6.525 10.228 0 6.236 2.451 10.011 6.599 10.011 4.035 0 6.565-3.922 6.565-10.08 0-6.236-2.569-10.159-6.639-10.159m3.296 36.15a178.69 178.69 0 0 1-1.072-2.215c-.1-.207-.35-.22-.441.009-.104.255-.995 2.046-1.055 2.175-.1.213.013.351.216.351h2.131c.156 0 .311-.139.221-.32a178.69 178.69 0 0 1-1.072-2.215c-.1-.207-.35-.22-.441.009-.104.255-.995 2.046-1.055 2.175-.1.213.013.351.216.351h2.131c.156 0 .311-.139.221-.32m-3.296-36.151c-4.034 0-6.525 3.849-6.525 10.228 0 6.236 2.451 10.011 6.599 10.011 4.035 0 6.565-3.922 6.565-10.08 0-6.236-2.569-10.159-6.639-10.159m17.174 32.34h-2.716c-.281 0-.575.099-.575.449v1.981c0 .311.294.493.575.493h2.716c.912 0 1.656-.48 1.656-1.461s-.744-1.461-1.656-1.461m6.903-32.34c-4.035 0-6.531 3.849-6.531 10.228 0 6.236 2.457 10.011 6.604 10.011 4.031 0 6.561-3.922 6.561-10.08 0-6.236-2.565-10.159-6.634-10.159m23.136-.225s-.835.056-1.245.121c-1.584.255-2.055.684-2.055 2.634v15.382c0 2.097 1.306 2.222 3.149 2.326 4.498.255 7.11-3.74 7.11-10.201s-2.595-10.262-6.959-10.262c0 0-.835.056-1.245.121-1.584.255-2.055.684-2.055 2.634v15.382c0 2.097 1.306 2.222 3.149 2.326 4.498.255 7.11-3.74 7.11-10.201s-2.595-10.262-6.959-10.262m-23.136.225c-4.035 0-6.531 3.849-6.531 10.228 0 6.236 2.457 10.011 6.604 10.011 4.031 0 6.561-3.922 6.561-10.08 0-6.236-2.565-10.159-6.634-10.159m-24.076 0c-4.034 0-6.525 3.849-6.525 10.228 0 6.236 2.451 10.011 6.599 10.011 4.035 0 6.565-3.922 6.565-10.08 0-6.236-2.569-10.159-6.639-10.159m17.174 32.34h-2.716c-.281 0-.575.099-.575.449v1.981c0 .311.294.493.575.493h2.716c.912 0 1.656-.48 1.656-1.461s-.744-1.461-1.656-1.461m-13.878 3.81a178.69 178.69 0 0 1-1.072-2.215c-.1-.207-.35-.22-.441.009-.104.255-.995 2.046-1.055 2.175-.1.213.013.351.216.351h2.131c.156 0 .311-.139.221-.32a178.69 178.69 0 0 1-1.072-2.215c-.1-.207-.35-.22-.441.009-.104.255-.995 2.046-1.055 2.175-.1.213.013.351.216.351h2.131c.156 0 .311-.139.221-.32m-3.296-36.151c-4.034 0-6.525 3.849-6.525 10.228 0 6.236 2.451 10.011 6.599 10.011 4.035 0 6.565-3.922 6.565-10.08 0-6.236-2.569-10.159-6.639-10.159m17.174 32.34h-2.716c-.281 0-.575.099-.575.449v1.981c0 .311.294.493.575.493h2.716c.912 0 1.656-.48 1.656-1.461s-.744-1.461-1.656-1.461m6.903-32.34c-4.035 0-6.531 3.849-6.531 10.228 0 6.236 2.457 10.011 6.604 10.011 4.031 0 6.561-3.922 6.561-10.08 0-6.236-2.565-10.159-6.634-10.159m23.136-.225s-.835.056-1.245.121c-1.584.255-2.055.684-2.055 2.634v15.382c0 2.097 1.306 2.222 3.149 2.326 4.498.255 7.11-3.74 7.11-10.201s-2.595-10.262-6.959-10.262c0 0-.835.056-1.245.121-1.584.255-2.055.684-2.055 2.634v15.382c0 2.097 1.306 2.222 3.149 2.326 4.498.255 7.11-3.74 7.11-10.201s-2.595-10.262-6.959-10.262m-23.136.225c-4.035 0-6.531 3.849-6.531 10.228 0 6.236 2.457 10.011 6.604 10.011 4.031 0 6.561-3.922 6.561-10.08 0-6.236-2.565-10.159-6.634-10.159m-24.076 0c-4.034 0-6.525 3.849-6.525 10.228 0 6.236 2.451 10.011 6.599 10.011 4.035 0 6.565-3.922 6.565-10.08 0-6.236-2.569-10.159-6.639-10.159m17.174 32.34h-2.716c-.281 0-.575.099-.575.449v1.981c0 .311.294.493.575.493h2.716c.912 0 1.656-.48 1.656-1.461s-.744-1.461-1.656-1.461m-13.878 3.81a178.69 178.69 0 0 1-1.072-2.215c-.1-.207-.35-.22-.441.009-.104.255-.995 2.046-1.055 2.175-.1.213.013.351.216.351h2.131c.156 0 .311-.139.221-.32m74.755-14.017c0-.255-.255-.316-.506-.316h-.345v.627h.259c.316 0 .592-.017.592-.311m0 1.565l-.64-.904h-.216v.904h-.381v-2.231h.839c.524 0 .761.207.761.666 0 .445-.246.618-.57.653l.648.912zm-.515-2.595c-.861 0-1.501.645-1.501 1.535s.64 1.531 1.501 1.531 1.5-.64 1.5-1.531-.635-1.535-1.5-1.535m-75.318 12.831c-.1-.207-.35-.22-.441.009-.104.255-.995 2.046-1.055 2.175-.1.213.013.351.216.351h2.131c.156 0 .311-.139.221-.32a178.69 178.69 0 0 1-1.072-2.215m-2.224-33.935c-4.034 0-6.525 3.849-6.525 10.228 0 6.236 2.451 10.011 6.599 10.011 4.035 0 6.565-3.922 6.565-10.08 0-6.236-2.569-10.159-6.639-10.159m17.174 32.34h-2.716c-.281 0-.575.099-.575.449v1.981c0 .311.294.493.575.493h2.716c.912 0 1.656-.48 1.656-1.461s-.744-1.461-1.656-1.461m6.903-32.34c-4.035 0-6.531 3.849-6.531 10.228 0 6.236 2.457 10.011 6.604 10.011 4.031 0 6.561-3.922 6.561-10.08 0-6.236-2.565-10.159-6.634-10.159m30.095 10.038c0-6.465-2.595-10.262-6.959-10.262 0 0-.835.056-1.245.121-1.584.255-2.055.684-2.055 2.634v15.382c0 2.097 1.306 2.222 3.149 2.326 4.498.255 7.11-3.74 7.11-10.201m25.32-17.8c-.146.674-.566.921-1.306.921l-.937.004h-14.398c-1.236 0-1.656-.246-1.656-1.064 0-.54.42-.986.912-.986h.744c.255 0 .511-.225.589-.471.112-.299.142-.48.142-1.47V46.843c0-.951-.03-1.142-.142-1.44-.078-.325-.373-.545-.589-.545h-.744c-.493 0-.942-.48-.942-1.025 0-.814.45-1.078 1.686-1.078h14.656c.74 0 1.155.248 1.306.921l.519 2.553c.199.943-.134 1.449-.804 1.449-.355 0-.696-.091-.944-.571-.043-.074-.194-.341-.362-.791-.359-.944-1.099-1.06-2.808-1.06h-3.459c-2.002 0-2.228.264-2.228 2.214v4.36c0 .821.116 1.18.338 1.328.169.116.441.142 1.493.142h1.707c1.54 0 1.76-.112 1.873-.847l.026-.225c.112-.623.441-.916.995-.916.769 0 1.025.436 1.025 1.725v3.084c0 1.284-.256 1.725-1.025 1.725-.554 0-.882-.333-.995-.955l-.039-.242c-.109-.735-.329-.844-1.873-.844h-1.695c-1.051 0-1.324.026-1.493.142-.221.148-.338.502-.338 1.329v4.653c0 1.943.116 2.353.696 2.578.471.177.981.255 2.184.255l3.65-.009c1.31 0 2.236-.41 2.69-1.361l.316-.671c.246-.48.635-.691.994-.691.666 0 .995.506.8 1.449l-.566 2.85zm-1.95 32.314c-1.06 0-1.907-.856-1.907-1.912 0-1.064.847-1.915 1.907-1.915 1.055 0 1.908.851 1.908 1.915a1.91 1.91 0 0 1-1.907 1.912m-8.55-1.656c-1.354 0-2.806-.191-3.854-.52-.528-.142-.588-.181-.795-.181-.311 0-.468.074-.782.364-.346.264-.528.337-.853.337-.614 0-.916-.337-1.132-1.216l-.926-3.671a2.9 2.9 0 0 1-.095-.735 1.13 1.13 0 0 1 1.159-1.146c.381 0 .696.195.921.494l.528.726c1.271 1.795 3.326 2.906 5.424 2.906 2.382 0 4.009-1.332 4.009-3.274 0-.995-.411-1.873-1.194-2.755-.795-.877-1.781-1.686-3.892-3.153-3.476-2.435-3.801-2.656-4.942-3.97-.925-1.073-1.397-2.388-1.397-3.854 0-3.559 2.707-5.911 6.751-5.911a15.01 15.01 0 0 1 3.166.329c.111.039.41.108.929.225.169.034.36.073.502.073.243 0 .522-.12.843-.332.364-.264.48-.294.775-.294.54 0 .886.368 1.034 1.025l.877 3.97c.065.172.065.394.065.51 0 .48-.429.877-1.055.877-.394 0-.636-.146-.974-.618-.826-1.25-.981-1.394-1.748-1.985a5.7 5.7 0 0 0-3.45-1.181c-1.696 0-2.794.965-2.794 2.47 0 .54.095 1.097.397 1.504.371.554.96 1.134 1.686 1.688l1.816 1.289c2.897 2.019 3.849 2.755 5.03 3.961 1.241 1.284 1.985 3.118 1.985 5.004 0 4.243-3.166 7.045-8.014 7.045m-9.267 9.461h-2.136c-.294 0-.506.096-.506.45l.013 6.388c0 .45-.32.502-.821.502-.484 0-.809-.049-.809-.485v-6.396c0-.311-.112-.459-.501-.459h-2.162c-.35 0-.45-.336-.45-.618 0-.311-.026-.912.438-.912h6.901c.311 0 .519.172.519.744 0 .506-.134.786-.484.786m-17.749 1.976h3.049c.368 0 .464.321.464.787 0 .406-.088.761-.429.761H92c-.243 0-.463.169-.463.45v1.293c0 .311.169.459.419.459h5.229c.346 0 .468.229.468.8 0 .411-.095.749-.463.749h-6.734c-.39 0-.55-.186-.55-.649v-7.586c0-.345.139-.588.541-.588h6.755c.403 0 .475.267.475.748 0 .446-.06.8-.496.8H91.9c-.211 0-.362.165-.362.394v1.194c0 .251.181.389.419.389m-5.547-13.125c0-.554.368-1.02.873-1.02h.749c.251 0 .501-.195.623-.48.074-.264.112-.485.112-1.445V76.008c0-.956-.039-1.18-.112-1.445-.121-.28-.371-.48-.623-.48h-.749c-.505 0-.873-.466-.873-1.02 0-.8.552-.912 1.621-1.073s4.065-.566 8.645-.566 7.416.994 9.665 3.269c2.159 2.168 3.33 5.505 3.33 9.471 0 4.441-1.496 8.112-4.22 10.28-2.115 1.713-4.77 2.491-8.775 2.491-4.58 0-7.573-.411-8.645-.567s-1.621-.267-1.621-1.073M74.018 96.97c-5.92 0-10.158-3.343-11.52-8.731a.55.55 0 0 1-.039-.121c-.121-.605-.666-.649-.796-.004 0 .021-.017.043-.026.065-1.375 5.466-5.635 8.791-11.694 8.791-7.261 0-11.988-5.025-11.988-12.689 0-7.844 4.693-12.835 12.061-12.835 6.05 0 10.354 3.374 11.672 8.874.139.631.675.584.791-.016 0-.009 0-.017.013-.022 1.345-5.501 5.579-8.835 11.602-8.835 7.335 0 12.1 4.951 12.1 12.654 0 7.845-4.73 12.87-12.174 12.87m10.164 16.819c-.744 0-.948-.116-1.138-.346l-2.824-3.014c-.385-.334-.77-.385-1.297-.385-.295 0-.524.302-.524.653v2.569c0 .489-.419.52-.877.52-.485 0-.74-.135-.74-.524v-7.841c0-.463.29-.54.861-.54.45 0 .756.104.756.528v2.366c0 .38.174.566.411.566.688 0 .835-.147 1.09-.368.285-.243 3.183-2.903 3.183-2.903.364-.311.731-.306 1.081.03.29.278.419.589.095.909-.225.22-2.767 2.521-2.767 2.521-.316.272-.237.528-.021.765l3.373 3.711c.48.522.039.782-.661.782m-15.518-2.846l1.487 2.168c.272.406.026.675-.816.675-.471 0-.787-.082-.991-.385l-1.37-2.129c-.156-.237-.381-.389-.689-.389h-1.959c-.237 0-.462.195-.462.433l.013 2.124c0 .419-.812.35-1.08.35-.351 0-.545-.1-.545-.493l.013-8.075c0-.211.181-.338.376-.338h4.645c1.794 0 3.144 1.155 3.144 3.006 0 1.6-1.155 2.124-1.618 2.516-.229.2-.285.338-.147.536m-13.055 2.846c-.269 0-.675-.044-.801-.338l-.57-1.18c-.074-.156-.225-.281-.411-.281h-3.638c-.229 0-.436.172-.566.498l-.505.964c-.112.281-.663.325-.917.325-.225 0-.964-.026-.731-.52l3.862-8.013c.108-.234.311-.411.675-.411s.561.121.682.38l3.792 8.093c.191.41-.605.484-.873.484m-13.982 0c-.225 0-.644-.125-.644-.42l-.623-4.709c-.04-.195-.112-.281-.269-.281-.125 0-.19.06-.276.169l-2.115 2.707c-.109.146-.251.237-.42.237-.241 0-.346-.061-.484-.264l-1.946-2.625c-.086-.109-.181-.139-.281-.139-.155 0-.234.139-.255.32l-.61 4.554c-.056.376-.519.45-.9.45-.264 0-.712-.125-.712-.463l.895-7.676c.095-.459.194-.722.856-.722a.74.74 0 0 1 .653.376l2.417 3.399c.13.186.278.343.438.338s.324-.169.462-.35l2.551-3.469c.156-.237.394-.338.675-.338.306 0 .531.07.661.585l.895 7.87c.044.45-.661.45-.969.45M26.42 92.43c0 .99 0 1.168.086 1.426.155.294.489.485.782.485h.83c.575 0 .974.471.974 1.025 0 .809-.45 1.064-1.804 1.064h-6.755c-1.254 0-1.695-.255-1.695-1.064 0-.554.441-1.025.946-1.025h.749c.25 0 .497-.191.619-.485.078-.259.116-.436.116-1.426V76.012c0-.951-.03-1.141-.148-1.435-.078-.325-.371-.55-.587-.55h-.744c-.494 0-.942-.475-.942-1.024 0-.809.449-1.073 1.686-1.073h15.915c.739 0 1.159.246 1.305.92l.52 2.552c.199.938-.135 1.449-.801 1.449-.359 0-.7-.095-.946-.575a5.65 5.65 0 0 1-.364-.787c-.359-.942-1.099-1.064-2.806-1.064h-4.714c-2.006 0-2.231.267-2.231 2.214v4.364c0 .821.116 1.176.341 1.328.169.118.436.142 1.492.142h3.035c1.54 0 1.76-.112 1.873-.847l.026-.229c.112-.623.441-.918.99-.918.775 0 1.03.441 1.03 1.726v3.088c0 1.285-.255 1.725-1.03 1.725-.549 0-.877-.332-.99-.955l-.039-.243c-.109-.735-.329-.847-1.872-.847h-3.023c-1.056 0-1.324.026-1.492.142-.225.151-.341.506-.341 1.332l.012 5.981zM14.336 46.614c-.549-1.509-.723-1.69-1.899-1.945-.783-.144-1.025-.399-1.025-.991 0-.623.39-.951 1.233-.951h7.581c.835 0 1.206.329 1.206.99 0 .619-.371.87-1.323.953-.809.072-1.137.333-1.137.916a2.44 2.44 0 0 0 .134.818l.29.839 4.692 13.324c.108.295.441.281.554-.047l2.72-7.9c.199-.649.285-1.333.051-2.081-.081-.264-1.323-3.922-1.323-3.922-.139-.398-.221-.691-.304-.843-.216-.536-.514-.731-1.361-.956-.758-.186-1.047-.436-1.047-.981 0-.705.424-1.108 1.28-1.108h7.205c.835 0 1.241.329 1.241.99 0 .584-.371.87-1.189.986-.977.112-1.241.337-1.241.995 0 .333.074.661.376 1.544l4.118 13.018c.108.333.424.259.514-.035l4.07-13.61a3.32 3.32 0 0 0 .142-.881c0-.55-.394-.844-1.285-.956-.809-.074-1.18-.441-1.18-1.025 0-.735.42-1.025 1.396-1.025h12.724c1.211 0 1.612.246 1.612 1.051 0 .601-.401 1.038-.907 1.038h-.705a.83.83 0 0 0-.701.468c-.069.273-.099.528-.099 1.444v4.736c0 1.695.146 1.837 1.505 1.837h4.986c.73 0 1.108-.116 1.292-.329.169-.225.169-.367.169-1.73v-4.515c0-.955 0-1.171-.09-1.444-.13-.281-.42-.468-.671-.468h-.7c-.554 0-.999-.436-.999-1.038 0-.805.445-1.051 1.699-1.051h6.674c1.249 0 1.695.246 1.695 1.051 0 .601-.446 1.038-.948 1.038h-.748a.74.74 0 0 0-.624.468c-.104.273-.129.528-.129 1.444v16.486c0 .955.025 1.171.129 1.47.079.255.373.438.624.438h.748c.545 0 .948.48.948 1.024 0 .814-.403 1.065-1.695 1.065h-6.674c-1.254 0-1.651-.251-1.651-1.065 0-.544.445-1.024.951-1.024h.7c.251 0 .541-.183.671-.437.09-.299.09-.515.09-1.47v-5.359c0-1.362 0-1.505-.169-1.725-.185-.216-.562-.334-1.292-.334h-4.986c-1.359 0-1.505.144-1.505 1.839v5.579c0 .955.03 1.171.099 1.47.112.255.399.438.701.438h.705c.506 0 .883.48.883 1.067 0 .77-.42 1.021-1.587 1.021h-6.69c-1.233 0-1.679-.251-1.679-1.065 0-.544.446-1.024.951-1.024h.727c.259 0 .561-.183.631-.437.112-.299.112-.489.112-1.47V46.727c0-1.873-.879-1.998-1.523-1.911s-1.029.502-1.428 1.799l-5.851 18.839c-.528 1.795-1.025 2.309-2.123 2.309s-1.653-.475-2.094-1.834l-3.122-9.336c-.104-.299-.415-.307-.501-.021s-3.335 9.357-3.335 9.357c-.354.879-.445 1.134-.744 1.433-.289.216-.77.401-1.25.401-1.064 0-1.586-.441-2.093-1.834l-7.205-19.314zM63.062 35.5c1.227-4.559 5.66-9.16 10.56-7.754 4.156 1.185 3.862 4.619 6.885 5.695 1.085.385.999 1.475.052 1.656-1.596.303-3.75-.856-5.359-2.314-1.881-1.707-4.939-1.634-6.431-.498-.653.498-.32.974.278.84 1.384-.299 3.728-.376 5.531 1.648 1.772 1.989 5.076 3.766 8 1.859.805-.523 1.328-1.604 2.145-1.37.874.246.886 1.517-.259 2.996-2.704 3.486-5.475 3.071-8.446 5.981s-3.567 6.219-3.567 10.422c0 6.517 2.564 10.465 6.897 10.465 4.216 0 6.862-4.099 6.862-10.542 0-5.311-1.257-8.745-4.411-9.956-1.526-.566-1.266-2.057.701-2.291 1.621-.19 3.209.362 4.951 1.648 3.006 2.214 4.506 5.734 4.506 10.449 0 8.204-4.942 13.454-12.722 13.454-7.594 0-12.538-5.25-12.538-13.264 0-5.155 1.938-9.125 5.289-11.365 1.401-1.047 3.771-2.254 6.094-3.04.48-.165.476-1.017-.376-.852-1.016.204-2.885.35-4.429-.273-3.464-1.366-4.471-3.81-8.549-2.059-1.229.528-2.02-.22-1.665-1.535m30.99 7.256h6.781c1.323 0 1.772.264 1.772 1.078 0 .584-.45 1.025-.972 1.025h-.8c-.338 0-.666.181-.77.48-.109.246-.109.471-.109 1.428v15.416c0 1.614.07 1.99.502 2.24.376.26.938.329 2.412.329h2.067c1.31 0 2.236-.41 2.69-1.361l.315-.671c.248-.48.636-.696.991-.696.67 0 .999.511.804 1.454l-.566 2.85c-.147.674-.566.921-1.306.921H94.052c-1.224 0-1.626-.243-1.626-1.06 0-.54.403-.986.916-.986h.71c.243 0 .54-.225.614-.471.109-.272.142-.45.142-1.366V46.766c0-.991-.034-1.138-.142-1.428a.66.66 0 0 0-.614-.48h-.71a1 1 0 0 1-.999-1.025c0-.814.446-1.078 1.709-1.078M71.14-4.538c-41.798 0-75.681 33.884-75.681 75.681s33.884 75.681 75.681 75.681c41.803 0 75.681-33.884 75.681-75.681S112.942-4.538 71.14-4.538m56.895 100.76c0-.255-.255-.316-.506-.316h-.345v.627h.259c.316 0 .592-.017.592-.311m0 1.565l-.64-.904h-.216v.904h-.381v-2.231h.839c.524 0 .761.207.761.666 0 .445-.246.618-.57.653l.648.912zm-.515-2.595c-.861 0-1.501.645-1.501 1.535s.64 1.531 1.501 1.531 1.5-.64 1.5-1.531-.635-1.535-1.5-1.535m-74.245 15.046c-.061-.112-.965-1.981-1.072-2.215-.1-.207-.35-.22-.441.009-.104.255-.995 2.046-1.055 2.175-.1.213.013.351.216.351h2.131c.156 0 .311-.139.221-.32m13.878-3.81h-2.716c-.281 0-.575.099-.575.449v1.981c0 .311.294.493.575.493h2.716c.912 0 1.656-.48 1.656-1.461s-.744-1.461-1.656-1.461m-17.174-32.34c-4.034 0-6.525 3.849-6.525 10.228 0 6.236 2.451 10.011 6.599 10.011 4.035 0 6.565-3.922 6.565-10.08 0-6.236-2.569-10.159-6.639-10.159m24.076 0c-4.035 0-6.531 3.849-6.531 10.228 0 6.236 2.457 10.011 6.604 10.011 4.031 0 6.561-3.922 6.561-10.08 0-6.236-2.565-10.159-6.634-10.159m23.136-.225s-.835.056-1.245.121c-1.584.255-2.055.684-2.055 2.634V92c0 2.097 1.306 2.222 3.149 2.326 4.498.255 7.11-3.74 7.11-10.201s-2.595-10.262-6.959-10.262m30.839 22.359c0-.255-.255-.316-.506-.316h-.345v.627h.259c.316 0 .592-.017.592-.311m0 1.565l-.64-.904h-.216v.904h-.381v-2.231h.839c.524 0 .761.207.761.666 0 .445-.246.618-.57.653l.648.912zm-.515-2.595c-.861 0-1.501.645-1.501 1.535s.64 1.531 1.501 1.531 1.5-.64 1.5-1.531-.635-1.535-1.5-1.535M97.186 73.864s-.835.056-1.245.121c-1.584.255-2.055.684-2.055 2.634v15.382c0 2.097 1.306 2.222 3.149 2.326 4.498.255 7.11-3.74 7.11-10.201s-2.595-10.262-6.959-10.262m-23.136.225c-4.035 0-6.531 3.849-6.531 10.228 0 6.236 2.457 10.011 6.604 10.011 4.031 0 6.561-3.922 6.561-10.08 0-6.236-2.565-10.159-6.634-10.159m-6.903 32.34h-2.716c-.281 0-.575.099-.575.449v1.981c0 .311.294.493.575.493h2.716c.912 0 1.656-.48 1.656-1.461s-.744-1.461-1.656-1.461m-17.174-32.34c-4.034 0-6.525 3.849-6.525 10.228 0 6.236 2.451 10.011 6.599 10.011 4.035 0 6.565-3.922 6.565-10.08 0-6.236-2.569-10.159-6.639-10.159m3.296 36.15c-.061-.112-.965-1.981-1.072-2.215-.1-.207-.35-.22-.441.009-.104.255-.995 2.046-1.055 2.175-.1.213.013.351.216.351h2.131c.156 0 .311-.139.221-.32-.061-.112-.965-1.981-1.072-2.215-.1-.207-.35-.22-.441.009-.104.255-.995 2.046-1.055 2.175-.1.213.013.351.216.351h2.131c.156 0 .311-.139.221-.32m13.878-3.81h-2.716c-.281 0-.575.099-.575.449v1.981c0 .311.294.493.575.493h2.716c.912 0 1.656-.48 1.656-1.461s-.744-1.461-1.656-1.461M49.974 74.088c-4.034 0-6.525 3.849-6.525 10.228 0 6.236 2.451 10.011 6.599 10.011 4.035 0 6.565-3.922 6.565-10.08 0-6.236-2.569-10.159-6.639-10.159m24.076 0c-4.035 0-6.531 3.849-6.531 10.228 0 6.236 2.457 10.011 6.604 10.011 4.031 0 6.561-3.922 6.561-10.08 0-6.236-2.565-10.159-6.634-10.159m23.136-.225s-.835.056-1.245.121c-1.584.255-2.055.684-2.055 2.634V92c0 2.097 1.306 2.222 3.149 2.326 4.498.255 7.11-3.74 7.11-10.201s-2.595-10.262-6.959-10.262c0 0-.835.056-1.245.121-1.584.255-2.055.684-2.055 2.634v15.382c0 2.097 1.306 2.222 3.149 2.326 4.498.255 7.11-3.74 7.11-10.201s-2.595-10.262-6.959-10.262m-23.136.225c-4.035 0-6.531 3.849-6.531 10.228 0 6.236 2.457 10.011 6.604 10.011 4.031 0 6.561-3.922 6.561-10.08 0-6.236-2.565-10.159-6.634-10.159m-6.903 32.34h-2.716c-.281 0-.575.099-.575.449v1.981c0 .311.294.493.575.493h2.716c.912 0 1.656-.48 1.656-1.461s-.744-1.461-1.656-1.461m-17.174-32.34c-4.034 0-6.525 3.849-6.525 10.228 0 6.236 2.451 10.011 6.599 10.011 4.035 0 6.565-3.922 6.565-10.08 0-6.236-2.569-10.159-6.639-10.159m3.296 36.15c-.061-.112-.965-1.981-1.072-2.215-.1-.207-.35-.22-.441.009-.104.255-.995 2.046-1.055 2.175-.1.213.013.351.216.351h2.131c.156 0 .311-.139.221-.32-.061-.112-.965-1.981-1.072-2.215-.1-.207-.35-.22-.441.009-.104.255-.995 2.046-1.055 2.175-.1.213.013.351.216.351h2.131c.156 0 .311-.139.221-.32m13.878-3.81h-2.716c-.281 0-.575.099-.575.449v1.981c0 .311.294.493.575.493h2.716c.912 0 1.656-.48 1.656-1.461s-.744-1.461-1.656-1.461M49.974 74.088c-4.034 0-6.525 3.849-6.525 10.228 0 6.236 2.451 10.011 6.599 10.011 4.035 0 6.565-3.922 6.565-10.08 0-6.236-2.569-10.159-6.639-10.159m24.076 0c-4.035 0-6.531 3.849-6.531 10.228 0 6.236 2.457 10.011 6.604 10.011 4.031 0 6.561-3.922 6.561-10.08 0-6.236-2.565-10.159-6.634-10.159m23.136-.225s-.835.056-1.245.121c-1.584.255-2.055.684-2.055 2.634v15.382c0 2.097 1.306 2.222 3.149 2.326 4.498.255 7.11-3.74 7.11-10.201s-2.595-10.262-6.959-10.262c0 0-.835.056-1.245.121-1.584.255-2.055.684-2.055 2.634v15.382c0 2.097 1.306 2.222 3.149 2.326 4.498.255 7.11-3.74 7.11-10.201s-2.595-10.262-6.959-10.262m-23.136.225c-4.035 0-6.531 3.849-6.531 10.228 0 6.236 2.457 10.011 6.604 10.011 4.031 0 6.561-3.922 6.561-10.08 0-6.236-2.565-10.159-6.634-10.159m-6.903 32.34h-2.716c-.281 0-.575.099-.575.449v1.981c0 .311.294.493.575.493h2.716c.912 0 1.656-.48 1.656-1.461s-.744-1.461-1.656-1.461m-17.174-32.34c-4.034 0-6.525 3.849-6.525 10.228 0 6.236 2.451 10.011 6.599 10.011 4.035 0 6.565-3.922 6.565-10.08 0-6.236-2.569-10.159-6.639-10.159m3.296 36.15c-.061-.112-.965-1.981-1.072-2.215-.1-.207-.35-.22-.441.009-.104.255-.995 2.046-1.055 2.175-.1.213.013.351.216.351h2.131c.156 0 .311-.139.221-.32m-3.296-36.15c-4.034 0-6.525 3.849-6.525 10.228 0 6.236 2.451 10.011 6.599 10.011 4.035 0 6.565-3.922 6.565-10.08 0-6.236-2.569-10.159-6.639-10.159m24.076 0c-4.035 0-6.531 3.849-6.531 10.228 0 6.236 2.457 10.011 6.604 10.011 4.031 0 6.561-3.922 6.561-10.08 0-6.236-2.565-10.159-6.634-10.159m23.136-.225s-.835.056-1.245.121c-1.584.255-2.055.684-2.055 2.634v15.382c0 2.097 1.306 2.222 3.149 2.326 4.498.255 7.11-3.74 7.11-10.201s-2.595-10.262-6.959-10.262c0 0-.835.056-1.245.121-1.584.255-2.055.684-2.055 2.634v15.382c0 2.097 1.306 2.222 3.149 2.326 4.498.255 7.11-3.74 7.11-10.201s-2.595-10.262-6.959-10.262m-23.136.225c-4.035 0-6.531 3.849-6.531 10.228 0 6.236 2.457 10.011 6.604 10.011 4.031 0 6.561-3.922 6.561-10.08 0-6.236-2.565-10.159-6.634-10.159m-24.076 0c-4.034 0-6.525 3.849-6.525 10.228 0 6.236 2.451 10.011 6.599 10.011 4.035 0 6.565-3.922 6.565-10.08 0-6.236-2.569-10.159-6.639-10.159-4.034 0-6.525 3.849-6.525 10.228 0 6.236 2.451 10.011 6.599 10.011 4.035 0 6.565-3.922 6.565-10.08 0-6.236-2.569-10.159-6.639-10.159m24.076 0c-4.035 0-6.531 3.849-6.531 10.228 0 6.236 2.457 10.011 6.604 10.011 4.031 0 6.561-3.922 6.561-10.08 0-6.236-2.565-10.159-6.634-10.159m23.136-.225s-.835.056-1.245.121c-1.584.255-2.055.684-2.055 2.634v15.382c0 2.097 1.306 2.222 3.149 2.326 4.498.255 7.11-3.74 7.11-10.201s-2.595-10.262-6.959-10.262c0 0-.835.056-1.245.121-1.584.255-2.055.684-2.055 2.634v15.382c0 2.097 1.306 2.222 3.149 2.326 4.498.255 7.11-3.74 7.11-10.201s-2.595-10.262-6.959-10.262m-23.136.225c-4.035 0-6.531 3.849-6.531 10.228 0 6.236 2.457 10.011 6.604 10.011 4.031 0 6.561-3.922 6.561-10.08 0-6.236-2.565-10.159-6.634-10.159m-24.076 0c-4.034 0-6.525 3.849-6.525 10.228 0 6.236 2.451 10.011 6.599 10.011 4.035 0 6.565-3.922 6.565-10.08 0-6.236-2.569-10.159-6.639-10.159" fill="#006f46"/></svg>