<svg width="167" height="48" viewBox="0 0 167 48" fill="none" xmlns="http://www.w3.org/2000/svg">
<path d="M12.7397 7.41043C12.0928 8.06967 12.0557 9.29749 12.0599 10.2122C12.0599 10.4512 12.2535 10.6407 12.4925 10.6407H15.2984C15.5373 10.6407 15.731 10.8343 15.731 11.0733V17.4308C15.731 17.6698 15.5373 17.8634 15.2984 17.8634H12.4966C12.2576 17.8634 12.064 18.0571 12.064 18.296L12.0516 35.0653C12.0516 35.3043 11.858 35.4938 11.619 35.4938H4.08313C3.84415 35.4938 3.65051 35.3002 3.65463 35.0612L3.66287 33.5779V18.2919C3.66287 18.0529 3.46922 17.8593 3.23025 17.8593H0.432624C0.193651 17.8593 0 17.6656 0 17.4267V11.0692C0 10.8302 0.193651 10.6366 0.432624 10.6366H3.23025C3.46922 10.6366 3.66287 10.4429 3.66287 10.2039V7.02313C3.66287 1.02822 8.55768 0.125895 10.6631 0.0146496C11.2523 -0.0183121 11.6314 0.0146496 11.6478 0.0146496H15.9164C16.1718 0.0146496 16.3696 0.233022 16.3449 0.488475L15.7433 6.42158C15.7227 6.64407 15.5373 6.80888 15.3148 6.80888H14.4331C13.6956 6.80888 13.1229 7.00665 12.7397 7.39807V7.41043Z" fill="#10487C"/>
<path d="M26.3365 0.447057V35.0527C26.3365 35.2917 26.1428 35.4854 25.908 35.4854H17.9395C17.7005 35.4854 17.5068 35.2917 17.5068 35.0527V0.447057C17.5068 0.208085 17.7005 0.0185547 17.9395 0.0185547H25.908C26.1469 0.0185547 26.3365 0.212205 26.3365 0.447057Z" fill="#10487C"/>
<path d="M37.0984 3.19936C37.0984 4.95869 35.6728 6.38016 33.9176 6.38016H31.8863C30.127 6.38016 28.7055 4.95457 28.7055 3.19936C28.7055 1.44415 30.1311 0.0185547 31.8863 0.0185547H33.9217C35.6769 0.0185547 37.1025 1.44415 37.1025 3.19936H37.0984ZM37.0984 8.94294V35.0527C37.0984 35.2917 36.9048 35.4854 36.6699 35.4854H29.134C28.8951 35.4854 28.7014 35.2917 28.7014 35.0527V8.94294C28.7014 8.70397 28.8951 8.51031 29.134 8.51031H36.6699C36.9089 8.51031 37.0984 8.70397 37.0984 8.94294Z" fill="#10487C"/>
<path d="M69.6398 22.2059C69.6398 29.9931 63.2164 36.33 55.3179 36.33C52.8128 36.33 50.3737 35.6873 48.2106 34.4677C48.0664 34.3853 47.8892 34.4883 47.8892 34.6531V43.973C47.8892 44.212 47.6955 44.4015 47.4607 44.4015H39.9248C39.6858 44.4015 39.4922 44.2079 39.4922 43.973V8.93882C39.4922 8.69985 39.6858 8.51032 39.9248 8.51032H47.4607C47.6997 8.51032 47.8892 8.70397 47.8892 8.93882V9.76286C47.8892 9.92767 48.0664 10.0307 48.2106 9.94827C50.3737 8.72457 52.8128 8.08594 55.3179 8.08594C63.2164 8.08594 69.6398 14.4228 69.6398 22.21V22.2059ZM60.5959 22.2059C60.5959 18.6337 57.65 15.7289 54.0283 15.7289C50.4066 15.7289 47.8892 18.6337 47.8892 22.2059C47.8892 25.7781 50.4066 28.6829 54.0283 28.6829C57.65 28.6829 60.5959 25.7781 60.5959 22.2059Z" fill="#10487C"/>
<path d="M100.842 9.21095V33.1206C100.838 42.3993 95.8403 47.5083 86.7717 47.5083H86.5327C86.4339 47.5083 86.3226 47.5083 86.2031 47.5083C84.1636 47.5083 79.1122 47.2529 73.3316 41.9872C73.1297 41.806 73.142 41.4887 73.3563 41.3239L78.9021 37.0512C79.0751 36.9194 79.3182 36.9317 79.4707 37.0883C80.6697 38.3203 83.3396 40.5411 86.7964 40.3103C89.0584 40.162 90.8919 39.3091 91.8313 37.9742C92.4658 37.076 92.6719 35.9882 92.4411 34.8016C92.4123 34.6533 92.2516 34.5791 92.1239 34.6533C89.9772 35.8605 87.5504 36.495 85.0701 36.495C77.2005 36.495 70.8018 30.1828 70.8018 22.4204C70.8018 14.6579 77.2046 8.3457 85.0701 8.3457C87.5669 8.3457 89.9978 8.98434 92.1527 10.2039C92.2969 10.2863 92.4741 10.1833 92.4741 10.0185V9.20271C92.4741 8.96374 92.6677 8.77009 92.9026 8.77009H100.41C100.649 8.77009 100.842 8.96374 100.842 9.20271V9.21095ZM92.4741 22.4327C92.4741 21.6622 92.3381 20.9082 92.0703 20.1913C91.1227 17.6697 89.0873 15.9763 86.3597 15.9763C82.7504 15.9763 79.8127 18.8728 79.8127 22.4327C79.8127 25.9926 82.5979 28.7778 86.1578 28.8808H86.2114C86.2608 28.8808 86.3102 28.885 86.3597 28.885C89.969 28.885 92.4741 25.9885 92.4741 22.4286V22.4327Z" fill="#10487C"/>
<path d="M111.159 3.40151C111.159 5.16084 109.734 6.58231 107.978 6.58231H105.947C104.188 6.58231 102.766 5.15672 102.766 3.40151C102.766 1.6463 104.192 0.220703 105.947 0.220703H107.983C109.738 0.220703 111.163 1.6463 111.163 3.40151H111.159ZM111.159 9.14509V35.2549C111.159 35.4939 110.966 35.6875 110.731 35.6875H103.195C102.956 35.6875 102.762 35.4939 102.762 35.2549V9.14509C102.762 8.90611 102.956 8.71246 103.195 8.71246H110.731C110.97 8.71246 111.159 8.90611 111.159 9.14509Z" fill="#10487C"/>
<path d="M142.386 0.793352L130.467 35.399C130.405 35.568 130.244 35.6833 130.063 35.6833H122.181C122 35.6833 121.835 35.568 121.777 35.399L112.457 9.28511C112.358 9.00494 112.564 8.70828 112.865 8.70828H120.376C120.558 8.70828 120.722 8.82365 120.78 8.99258L126.124 23.9654L133.639 1.79044C133.701 1.6174 133.862 1.50615 134.043 1.50615L141.983 0.212402C142.279 0.212402 142.489 0.504937 142.386 0.789232V0.793352Z" fill="#10487C"/>
<path d="M166.667 22.4081C166.667 23.1868 166.576 24.1015 166.436 24.9173C166.399 25.1274 166.222 25.2757 166.012 25.2757H147.121C146.787 25.2757 146.581 25.6424 146.75 25.9308C147.912 27.9003 149.988 29.124 152.287 29.124C154.24 29.124 156.061 28.2629 157.355 26.6066C157.454 26.4788 157.615 26.4129 157.771 26.4417L165.006 27.7396C165.287 27.7891 165.443 28.094 165.32 28.3494C165.155 28.6873 164.953 29.1075 164.833 29.3218H164.838L164.718 29.5237C164.607 29.7132 164.491 29.8945 164.36 30.1005C164.191 30.3559 164.038 30.5784 163.882 30.7845L163.791 30.9081H163.783C163.733 30.974 163.68 31.0399 163.626 31.1058L163.548 31.2047C163.445 31.3283 163.35 31.4437 163.251 31.5591L163.165 31.6579C163.004 31.8392 162.847 32.0123 162.67 32.1894L162.571 32.2883C162.46 32.3996 162.345 32.5149 162.229 32.6262L162.192 32.6591C162.065 32.7786 161.937 32.8981 161.805 33.0094L161.661 33.133L161.496 32.9888L161.636 33.1495C161.434 33.3184 161.245 33.4708 161.055 33.615L160.894 33.7345C160.672 33.8993 160.445 34.0559 160.215 34.2084L160.149 34.2496C159.881 34.4185 159.613 34.5792 159.341 34.7316L159.263 34.7769C159.197 34.814 159.131 34.847 159.065 34.8799L159.02 34.9047C158.892 34.9706 158.781 35.0283 158.67 35.0818L158.604 35.1148C158.348 35.2384 158.109 35.3455 157.87 35.4444L157.821 35.465C157.66 35.5309 157.516 35.5886 157.372 35.6381L157.199 35.704C157.021 35.7658 156.844 35.8276 156.663 35.8812L156.63 35.8935C156.436 35.9512 156.234 36.0089 156.004 36.0707L155.839 36.1119C155.427 36.2149 155.015 36.2973 154.607 36.3591L154.45 36.3838C154.014 36.4456 153.585 36.4868 153.157 36.5115L153 36.5198C152.745 36.5322 152.535 36.5363 152.337 36.5363C152.139 36.5363 151.921 36.5322 151.673 36.5198C151.624 36.5198 151.575 36.5157 151.525 36.5115H151.476C151.315 36.4992 151.15 36.4868 150.989 36.4703H150.94C150.895 36.4621 150.845 36.458 150.8 36.4539C150.565 36.4291 150.359 36.4044 150.17 36.3756H150.161C150.161 36.3756 150.157 36.3756 150.153 36.3756L150.038 36.3591C149.861 36.3303 149.687 36.3014 149.519 36.2643L149.333 36.2273C149.177 36.1943 149.024 36.1613 148.872 36.1242L148.822 36.1119C148.777 36.0995 148.732 36.0913 148.686 36.0789C148.46 36.0212 148.258 35.9636 148.076 35.91C147.87 35.8482 147.673 35.7782 147.475 35.7122C147.43 35.6957 147.38 35.6793 147.335 35.6628L147.298 35.6504C147.154 35.5969 147.009 35.5392 146.865 35.4815L146.824 35.465C146.779 35.4485 146.733 35.4279 146.692 35.4115C146.503 35.3291 146.309 35.2466 146.123 35.1601L146.103 35.1478C145.934 35.0695 145.749 34.9747 145.567 34.8758C145.526 34.8511 145.481 34.8305 145.44 34.8058L145.407 34.7852C145.275 34.711 145.139 34.6369 145.007 34.5586L144.846 34.4638C144.669 34.3567 144.496 34.2496 144.327 34.1342C142.617 32.997 141.15 31.4808 140.083 29.742C139.993 29.5978 139.906 29.4495 139.824 29.3012L139.787 29.2311C139.708 29.0869 139.63 28.9427 139.556 28.7944L139.515 28.712C139.49 28.6667 139.469 28.6255 139.449 28.5801C139.177 28.0322 138.938 27.443 138.736 26.8373C138.625 26.4994 138.538 26.2151 138.468 25.9432C138.41 25.7207 138.357 25.4941 138.307 25.2592C138.163 24.5629 138.073 23.8501 138.035 23.1415C138.023 22.9025 138.015 22.6553 138.015 22.4163C138.015 22.1773 138.019 21.9301 138.035 21.6911C138.101 20.4386 138.336 19.1943 138.736 17.9953C138.868 17.5998 139 17.2454 139.14 16.9199C139.222 16.7304 139.309 16.5409 139.399 16.3555C139.42 16.3101 139.44 16.2689 139.465 16.2236L139.519 16.1165C139.539 16.0712 139.56 16.03 139.585 15.9846C139.609 15.9393 139.63 15.894 139.655 15.8528L139.778 15.6262C139.877 15.449 139.98 15.2677 140.087 15.0947C141.155 13.3601 142.621 11.8397 144.331 10.7025C144.5 10.5913 144.677 10.48 144.85 10.3729L145.011 10.2781C145.143 10.1999 145.275 10.1257 145.411 10.0515L145.444 10.0309C145.485 10.0062 145.53 9.98561 145.571 9.96089C145.753 9.86613 145.938 9.77136 146.123 9.68072C146.313 9.59007 146.503 9.50767 146.696 9.42527C146.742 9.40466 146.783 9.38818 146.828 9.3717L146.869 9.35522C147.013 9.29754 147.158 9.23986 147.302 9.18629L147.343 9.16981C147.388 9.15333 147.434 9.13685 147.479 9.12037C147.677 9.05033 147.875 8.9844 148.076 8.9226C148.282 8.8608 148.484 8.80311 148.69 8.74955C148.736 8.73719 148.781 8.72895 148.826 8.71659L148.876 8.70423C149.028 8.66715 149.185 8.63006 149.337 8.5971L149.444 8.5765C149.63 8.53942 149.935 8.48174 150.124 8.4529H150.157L150.165 8.44877H150.174C150.363 8.41993 150.569 8.39521 150.804 8.37049C150.849 8.36637 150.899 8.36225 150.944 8.35813H150.994C151.154 8.33753 151.315 8.32929 151.48 8.31693H151.517C151.57 8.31281 151.62 8.30869 151.673 8.30457C151.921 8.29221 152.139 8.28809 152.337 8.28809C152.535 8.28809 152.741 8.29221 152.992 8.30457L153.148 8.31281C153.581 8.33753 154.014 8.37873 154.434 8.44053L154.607 8.46526C155.015 8.53118 155.427 8.61358 155.827 8.71247L156.004 8.75779C156.234 8.81547 156.436 8.87316 156.618 8.93084L156.651 8.93908C156.84 8.99676 157.013 9.05857 157.19 9.12037C157.244 9.13685 157.297 9.15745 157.351 9.17805C157.512 9.23986 157.656 9.29342 157.796 9.3511L157.866 9.37994C158.097 9.47471 158.344 9.58595 158.591 9.70544L158.653 9.73428C158.777 9.79609 158.888 9.84965 158.995 9.90733L159.032 9.92793L158.941 10.1216L159.053 9.94029C159.119 9.97737 159.185 10.0103 159.25 10.0474C159.494 10.1834 159.885 10.4141 160.124 10.5666L160.153 10.583C160.4 10.7437 160.635 10.9085 160.866 11.0734L160.903 11.1022C160.948 11.1352 160.993 11.1681 161.043 11.2052C161.241 11.3535 161.43 11.506 161.628 11.6749L161.743 11.7697C161.896 11.8974 162.04 12.0292 162.184 12.1652L162.221 12.2023C162.337 12.3094 162.452 12.4207 162.563 12.536L162.65 12.6226C162.831 12.808 162.992 12.981 163.144 13.1541L163.004 13.3189L163.165 13.1788L163.239 13.2653C163.334 13.3766 163.428 13.4919 163.523 13.6073L163.614 13.7185C163.725 13.8545 163.832 13.9946 163.935 14.1388L163.952 14.1594C164.038 14.2706 164.121 14.3901 164.199 14.5096L164.351 14.7445C164.417 14.8475 164.487 14.9546 164.549 15.0576L164.813 15.4943C165.348 16.4296 165.769 17.4144 166.069 18.4279C166.457 19.7258 166.65 21.069 166.655 22.4163L166.667 22.4081ZM158.229 18.8276C157.895 16.8416 155.592 15.2883 152.67 15.2883C150.013 15.2883 147.487 16.8293 147.112 18.8194C147.063 19.083 147.269 19.3303 147.537 19.3303H157.8C158.068 19.3303 158.27 19.0872 158.225 18.8276H158.229Z" fill="#10487C"/>
</svg>
