<svg xmlns="http://www.w3.org/2000/svg" width="790.5" height="203.5">
    <radialGradient id="a" cx="101.069" cy="135.913" r="133.912" gradientUnits="userSpaceOnUse">
        <stop offset=".002" stop-color="#c81c6c"/>
        <stop offset=".357" stop-color="#f05673"/>
        <stop offset="1" stop-color="#fab37f"/>
    </radialGradient>
    <path fill="url(#a)"
          d="M174.8 37.1c-.3-.4-.7-.9-1-1.3-.1-.1-.2-.2-.2-.3-.4-.4-.7-.9-1.1-1.3-.2-.3-.5-.5-.7-.8-.3-.3-.6-.7-.9-1-.3-.4-.7-.8-1.1-1.1-.2-.2-.4-.5-.7-.7-.6-.6-1.2-1.3-1.8-1.9l-1.7-1.7c-.6-.5-1.1-1-1.7-1.6C147.7 10.7 127.4 2 105.7.3h-.2c-.7-.1-1.4-.1-2.1-.1h-.4c-.7 0-1.3-.1-2-.1h-6c-.7 0-1.3 0-2 .1h-.4c-.7 0-1.4.1-2.1.1h-.2C67.8 2 46.8 11.4 30.4 27c-.5.4-.9.9-1.4 1.3l-.3.3-1.5 1.5-.3.3c-5.3 5.6-10 11.8-13.8 18.4l-.1.3c-5.7 10-9 21.2-9.6 32.6v4c0 6 .7 12.1 2.2 18l.3 1.2c5.1 19 17.2 34.8 34.2 44.6 10.8 6.2 23 9.6 35.3 9.9h4.2c.6 0 1.2 0 1.7-.1h.2c2.3-.1 4.5-.4 6.8-.8.8-.1 1.5-.3 2.3-.4l1.2-.3c.4-.1.7-.1 1.1-.2.8-.2 1.5-.4 2.3-.6.4-.1.9-.2 1.3-.4.2 0 .3-.1.5-.1.2-.1.5-.1.7-.2.4-.1.8-.2 1.2-.4.1 0 .2-.1.3-.1 14.2-4.5 26.6-13.2 35.6-24.9.2-.3.5-.6.7-.9 1.3-1.7 2.5-3.4 3.6-5.3.2-.2.3-.6.5-.8 0-.1.1-.1.1-.2-4.1 5.9-5.1 6.9-5.1 6.9-8.6 9.7-20.9 15.6-33.9 16.3H98c-1.1 0-2.1 0-3.2-.1h-.3c-1.1-.1-2.1-.2-3.2-.3h-.1c-15.4-2.1-29-11.5-36.5-25.5-.1-.3-.3-.5-.4-.8-.3-.5-.6-1.1-.8-1.6 0-.1-.1-.1-.1-.2-.2-.5-.5-1-.7-1.5v-.1l-1.5-3.3c-.1-.3-.2-.6-.4-.9-.1-.2-.1-.4-.2-.5-.2-.4-.3-.9-.5-1.3 0-.1-.1-.2-.1-.3-.2-.5-.4-1.1-.6-1.6-2.4-7.2-3.7-14.6-3.8-22.1v-.1-.9c0-3.1.2-6.3.6-9.4v-.2c.1-1.1.3-2.2.5-3.2 0-.1 0-.2.1-.3.1-.4.2-.9.3-1.3 0-.1 0-.2.1-.3l.3-1.5c0-.1.1-.2.1-.3l.3-1.2c0-.1.1-.3.1-.4.1-.5.3-1 .4-1.5 2-7 4.9-13.6 8.7-19.6.5-.8 1.1-1.6 1.6-2.4.1-.2.3-.4.4-.6C65.2 35 73 27.8 82.4 22.4c17-9.8 36.8-12.4 55.8-7.3.5.1 1.1.3 1.6.4.2 0 .3.1.5.1.4.1.8.2 1.1.4.2.1.3.1.5.2.5.2.9.3 1.4.5.1 0 .1 0 .2.1.5.2 1 .3 1.4.5.2.1.4.1.5.2.3.1.7.3 1 .4.2.1.4.1.6.2.4.2.8.3 1.2.5.2.1.3.1.5.2l1.2.6.6.3c.3.1.6.3.9.4l.6.3c.3.2.6.3.9.5.2.1.4.2.7.3.4.2.7.4 1.1.6l.6.3c.3.1.5.3.8.4.2.1.4.2.6.4.3.2.6.3.8.5.2.1.4.2.6.4.4.2.8.5 1.2.7.2.1.4.3.6.4.3.2.5.3.8.5.2.1.4.3.6.4.3.2.5.4.8.6.2.1.3.2.5.3l1.2.9c.2.1.3.3.5.4.3.2.5.4.8.6.2.1.3.3.5.4.3.2.5.5.8.7.1.1.3.2.4.3.4.3.8.7 1.2 1 .1.1.3.2.4.3.3.2.6.5.8.7l.4.4.8.8.3.3 1.1 1.1.3.3.9.9c.1.1.2.3.4.4.3.3.5.6.8.9l.3.3c3.1 3.6 5.9 7.5 8.4 11.6-2.5-4.3-5.2-8.2-8.1-11.9z"/>
    <radialGradient id="b" cx="128.671" cy="66.907" r="132.482" gradientUnits="userSpaceOnUse">
        <stop offset=".001" stop-color="#077e40"/>
        <stop offset=".369" stop-color="#4aac61"/>
        <stop offset=".595" stop-color="#88c652"/>
        <stop offset=".873" stop-color="#f3e748"/>
    </radialGradient>
    <path fill="url(#b)"
          d="M156 77.3c-1.1-1.4-2.3-2.8-3.5-4.2-.8-.9-1.7-1.8-2.5-2.7l-1.2-1.2-.3-.3c-.3-.3-.6-.6-1-.9l-.3-.3c-.4-.4-.8-.7-1.2-1l-.1-.1C137.2 59.2 127 54 116 51.2h-.1c-.5-.1-1-.2-1.5-.4-.1 0-.2 0-.3-.1-.5-.1-1.1-.2-1.6-.3-.2 0-.3-.1-.5-.1-.4-.1-.7-.1-1.1-.2-.3-.1-.6-.1-.9-.1-.3-.1-.7-.1-1-.2-.2 0-.3-.1-.5-.1-.4-.1-.8-.1-1.2-.2-.2 0-.3 0-.5-.1-.4 0-.7-.1-1.1-.1-.3 0-.5-.1-.7-.1-.2 0-.4 0-.7-.1-1.2-.1-2.3-.2-3.4-.2H99.1c2.7.1 5.6.3 8.7 1 .1 0 .2 0 .3.1.4.1.7.2 1.1.2 20.9 4.9 36.3 23.1 37.7 44.4 0 .3 0 .7.1 1v2.3c0 1.2 0 2.3-.1 3.5-.6 7.9-3 15.5-7.2 22.3 0 .1-.1.1-.1.2-.1.2-.2.4-.3.5 0 .1-.1.1-.1.2-1.1 1.8-2.3 3.6-3.6 5.3-.2.3-.5.6-.7.9-9.1 11.7-21.4 20.4-35.6 24.9-.1 0-.2.1-.3.1-.4.1-.8.2-1.2.4-.1 0-.2 0-.2.1-.2 0-.3.1-.5.1s-.3.1-.5.1c-.4.1-.9.2-1.3.4-.8.2-1.5.4-2.3.6-.4.1-.7.1-1.1.2l-1.2.3c-.8.1-1.5.3-2.3.4-2.2.4-4.5.6-6.8.8h-.2c-.6 0-1.2.1-1.7.1h-4-.1-.1c-12.5-.3-24.7-3.7-35.5-9.9-17-9.8-29.2-25.7-34.2-44.6l-.3-1.2c-1.5-5.9-2.2-11.9-2.2-18v-.1-1.3-.6-.8-.7-.5c0-.7.1-1.4.1-2.1v-.1c.9-10.6 4.1-21 9.5-30.4-2.2 3.8-4.2 7.8-5.8 11.9C3 71 .6 81.6.1 92.6v.2c0 .7-.1 1.4-.1 2.1v5.9c0 .7 0 1.3.1 2v.4c0 .7.1 1.4.1 2.1v.2C2 128.2 11.4 149.1 27 165.6c.4.5.9.9 1.3 1.4l.3.3.3.3c.5.5.9.9 1.4 1.3 16.4 15.7 37.4 25 59.9 26.7h.2c.7.1 1.4.1 2.1.1h.4c.7 0 1.3.1 2 .1h4.5c1.5-.1 7.7-.5 11.9-1.2.3-.1.6-.1.9-.2.1 0 .3-.1.4-.1l1.2-.3c.2 0 .3-.1.5-.1.4-.1.9-.2 1.3-.3.1 0 .2 0 .3-.1.5-.1 1-.3 1.6-.4.1 0 .3-.1.4-.1l1.2-.3c.2 0 .3-.1.5-.2.4-.1.8-.2 1.2-.4.1 0 .3-.1.4-.1.5-.2 1-.3 1.5-.5.1 0 .3-.1.4-.1.4-.1.8-.3 1.1-.4.2-.1.3-.1.5-.2.4-.1.7-.3 1-.4.2-.1.3-.1.5-.2.5-.2 1-.4 1.4-.6.1-.1.3-.1.4-.2.4-.2.7-.3 1.1-.5.2-.1.4-.2.5-.3.3-.2.6-.3.9-.5.2-.1.3-.2.5-.3.5-.2.9-.5 1.4-.7.1-.1.3-.1.4-.2.3-.2.7-.4 1-.6.2-.1.4-.2.5-.3.3-.2.6-.3.9-.5.2-.1.4-.2.5-.3.4-.3.9-.5 1.3-.8.1-.1.2-.2.4-.2.3-.2.7-.4 1-.7.2-.1.3-.2.5-.3l.9-.6c.2-.1.3-.2.5-.3l1.2-.9c.1-.1.2-.1.3-.2.4-.3.7-.5 1.1-.8.2-.1.3-.2.5-.4.3-.2.6-.5.9-.7.1-.1.3-.2.4-.3.4-.3.8-.7 1.2-1l.1-.1c.4-.3.8-.7 1.1-1 .1-.1.3-.2.4-.3.3-.3.6-.5.9-.8.1-.1.2-.2.4-.3l1.2-1.2c.9-.9 1.7-1.8 2.5-2.7 1.2-1.4 2.4-2.7 3.5-4.2 10-12.8 15.5-28.6 15.5-45.1s-5.5-32.1-15.5-45z"/>
    <radialGradient id="c" cx="75.821" cy="86.881" r="133.372" fx="60.437" fy="87.721" gradientUnits="userSpaceOnUse">
        <stop offset=".078" stop-color="#6851a2"/>
        <stop offset=".406" stop-color="#7976b7"/>
        <stop offset=".684" stop-color="#83d3e8"/>
        <stop offset="1" stop-color="#97d1a8"/>
    </radialGradient>
    <path fill="url(#c)"
          d="M170.5 163.9c14.7-16.2 23.5-36.5 25.2-58.2v-.2c.1-.7.1-1.4.1-2.1v-.4c0-.7.1-1.3.1-2v-.5V98v-2.2-.6c0-.7 0-1.4-.1-2.1v-.5c0-.5-.1-1.1-.1-1.6 0-.3 0-.5-.1-.8-.1-.6-.1-1.3-.2-1.9 0-.3-.1-.6-.1-.9 0-.4-.1-.8-.1-1.2 0-.3-.1-.6-.1-1-.1-.6-.2-1.2-.2-1.8 0-.3-.1-.7-.2-1-.1-.4-.1-.8-.2-1.2-.1-.3-.1-.6-.2-.9-.1-.6-.2-1.2-.4-1.8-.1-.3-.1-.5-.2-.8-.1-.6-.2-1.1-.4-1.6 0-.1-.1-.3-.1-.4-.2-.7-.3-1.5-.5-2.2 0-.1 0-.1-.1-.2-2.2-8.5-5.5-16.8-10-24.4l-.1-.1c-2.4-4.2-5.2-8.1-8.4-11.6l-.3-.3c-.3-.3-.5-.6-.8-.9-.1-.1-.2-.3-.4-.4l-.9-.9-.3-.3-1.1-1.1-.3-.3-.8-.8-.4-.4c-.3-.3-.5-.5-.8-.7-.1-.1-.3-.2-.4-.3-.4-.3-.8-.7-1.2-1-.1-.1-.3-.2-.4-.3-.3-.2-.5-.5-.8-.7-.2-.1-.3-.3-.5-.4-.3-.2-.5-.4-.8-.6-.2-.1-.3-.3-.5-.4l-1.2-.9c-.2-.1-.3-.2-.5-.3-.3-.2-.5-.4-.8-.6-.2-.1-.4-.3-.6-.4-.3-.2-.5-.3-.8-.5-.2-.1-.4-.3-.6-.4-.4-.3-.8-.5-1.2-.7-.2-.1-.4-.2-.6-.4-.3-.2-.6-.3-.8-.5-.2-.1-.4-.2-.6-.4-.3-.2-.5-.3-.8-.4l-.6-.3c-.4-.2-.7-.4-1.1-.6-.2-.1-.4-.2-.7-.3-.3-.2-.6-.3-.9-.5l-.6-.3c-.3-.1-.6-.3-.9-.4l-.6-.3-1.2-.6c-.2-.1-.3-.1-.5-.2-.4-.2-.8-.3-1.2-.5-.2-.1-.4-.2-.6-.2-.3-.1-.7-.3-1-.4-.2-.1-.4-.1-.5-.2-.5-.2-1-.4-1.4-.5-.1 0-.1 0-.2-.1-.5-.2-.9-.3-1.4-.5-.2-.1-.3-.1-.5-.2-.4-.1-.8-.2-1.1-.4-.2 0-.3-.1-.5-.1-.5-.2-1.1-.3-1.6-.4-19-5.1-38.8-2.5-55.8 7.3-9.3 5.4-17.2 12.6-23.3 21.2-.2.2-.3.4-.4.6-.5.8-1.1 1.6-1.6 2.4-3.8 6-6.8 12.6-8.7 19.7-.1.5-.3 1-.4 1.5 0 .1-.1.3-.1.4l-.3 1.2c0 .1-.1.2-.1.3l-.3 1.5c0 .1 0 .2-.1.3-.1.4-.2.9-.3 1.3 0 .1 0 .2-.1.3-.2 1.1-.4 2.2-.5 3.2v.2c-.4 3.1-.6 6.2-.6 9.4v1c.1 7.6 1.4 15 3.8 22.1.2.5.4 1.1.6 1.6 0 .1.1.2.1.3.2.4.3.9.5 1.3.1.2.1.4.2.5.1.3.2.6.4.9.5 1.1.9 2.2 1.5 3.3v.1c.2.5.5 1 .7 1.5 0 .1.1.1.1.2.3.5.6 1.1.8 1.6.1.3.3.5.4.8-1.3-2.4-2.4-5-3.3-7.6-1.3-3.9-2.1-8-2.4-12.1 0-.6-.1-1.2-.1-1.8V99v-1.1c0-27 22-49 49-49H100.4c1.1 0 2.2.1 3.4.2.2 0 .4 0 .7.1.3 0 .5 0 .7.1.4 0 .7.1 1.1.1.2 0 .3 0 .5.1.4.1.8.1 1.2.2.2 0 .3 0 .5.1.3.1.7.1 1 .2.3 0 .6.1.9.1.4.1.7.1 1.1.2.2 0 .3.1.5.1.5.1 1.1.2 1.6.3.1 0 .2 0 .3.1.5.1 1 .2 1.5.4h.1c11 2.8 21.2 8 29.9 15.6l.1.1c.4.3.8.7 1.2 1l.3.3c.3.3.6.6 1 .9l.3.3 1.2 1.2c.9.9 1.7 1.8 2.5 2.7 1.2 1.4 2.4 2.7 3.5 4.2 10 12.8 15.5 28.6 15.5 45.1s-5.4 32.3-15.5 45.1c-1.1 1.4-2.3 2.8-3.5 4.2-.8.9-1.7 1.8-2.5 2.7l-1.2 1.2c-.1.1-.2.2-.4.3-.3.3-.6.5-.9.8-.1.1-.3.2-.4.3-.4.3-.8.7-1.1 1l-.1.1c-.4.3-.8.7-1.2 1-.1.1-.3.2-.4.3-.3.2-.6.5-.9.7-.2.1-.3.2-.5.4-.3.3-.7.5-1.1.8-.1.1-.2.1-.3.2l-1.2.9c-.2.1-.3.2-.5.3l-.9.6c-.2.1-.3.2-.5.3-.3.2-.7.4-1 .7-.1.1-.2.2-.4.2-.4.3-.9.5-1.3.8-.2.1-.3.2-.5.3-.3.2-.6.3-.9.5-.2.1-.4.2-.5.3-.3.2-.7.4-1 .6-.1.1-.3.1-.4.2-.5.2-.9.5-1.4.7-.2.1-.3.2-.5.3-.3.2-.6.3-.9.5-.2.1-.4.2-.5.3-.4.2-.7.3-1.1.5-.1.1-.3.1-.4.2-.5.2-1 .4-1.4.6-.2.1-.3.1-.5.2-.3.1-.7.3-1 .4-.2.1-.3.1-.5.2-.4.1-.8.3-1.1.4-.1 0-.3.1-.4.1-.5.2-1 .3-1.5.5-.1 0-.3.1-.4.1-.4.1-.8.3-1.2.4-.2.1-.3.1-.5.2l-1.2.3c-.1 0-.3.1-.4.1-.5.1-1 .3-1.6.4-.1 0-.2 0-.3.1-.4.1-.9.2-1.3.3-.2 0-.3.1-.5.1l-1.2.3c-.1 0-.3.1-.4.1h-.2c-.2 0-.4.1-.7.1-4.2.7-10.4 1.1-11.9 1.2h-.3c6.3 0 13-1 13-1 19.4-2.8 37.1-11.2 51.6-24.4l.2-.2c.5-.4.9-.9 1.4-1.3l.3-.3c.5-.5 1.1-1 1.6-1.6l1.7-1.7c1-.5 1.6-1.1 2.1-1.6z"/>
    <g fill="#3b3960">
        <path
            d="M257.8 164.9h-30.1V21.5h30.1v51.3c6.1-6.1 16.4-8.9 25.1-8.9 25.7 0 37.2 17.6 37.2 39.2v61.8H290v-56.6c0-9.7-5.1-17-16-17-9.5 0-15.6 6.7-16.2 15.8v57.8zM432.7 115.6c0 30.5-22.8 52.3-52.3 52.3-29.3 0-52.3-21.8-52.3-52.3s23-52.1 52.3-52.1c29.5 0 52.3 21.6 52.3 52.1zm-30.1 0c0-16.6-10.7-24.4-22.2-24.4-11.3 0-22.2 7.7-22.2 24.4 0 16.4 10.9 24.6 22.2 24.6 11.5-.1 22.2-8 22.2-24.6zM543.6 116.6c0 30.5-22.8 52.3-52.3 52.3-29.3 0-52.3-21.8-52.3-52.3s23-52.1 52.3-52.1c29.5 0 52.3 21.6 52.3 52.1zm-30.1 0c0-16.6-10.7-24.4-22.2-24.4-11.3 0-22.2 7.7-22.2 24.4 0 16.4 10.9 24.6 22.2 24.6 11.5-.1 22.2-8 22.2-24.6zM551.2 203.5v-136h29.1v10.1c4.2-6.3 14.9-12.5 28.9-12.5 28.5 0 45.7 21.8 45.7 51.3 0 30.1-19.4 51.7-46.9 51.7-12.7 0-22.2-4.4-26.7-9.9v45.3h-30.1zm51.9-111.3c-11.7 0-22.2 7.9-22.2 24.4 0 16.2 10.5 24.6 22.2 24.6 11.9 0 22.4-8.1 22.4-24.6S615 92.2 603.1 92.2zM661.6 165.9V22.5h30.1v143.4h-30.1zM729.7 109l23.2-3.6c5.3-.8 7.1-3.4 7.1-6.7 0-5.7-5-10.7-14.5-10.7-10.5 0-16.2 7.1-16.8 14.5l-26.1-5.3c1.2-14.1 14.3-32.7 43.2-32.7 31.9 0 43.6 17.8 43.6 38v48.1c0 7.7 1 14.3 1.2 15.2h-27.1c-.2-.8-1-4.4-1-11.1-5.1 8.3-14.7 13.9-27.7 13.9-21.6 0-34.1-14.3-34.1-29.9-.2-17.4 12.7-27.3 29-29.7zm30.3 18.3v-4.4l-18.6 3c-6.3 1-11.1 4-11.1 10.9 0 5.1 3.4 10.1 11.7 10.1 8.8 0 18-4.4 18-19.6z"/>
    </g>
</svg>
