<svg xmlns="http://www.w3.org/2000/svg" width="220" height="41" fill="none"><path fill="url(#a)" d="M14.194 32.036c-2.199-2.596-3.623-6.433-3.719-10.737v-.938c.096-4.305 1.52-8.141 3.719-10.737 2.852-3.704 7.092-6.052 11.826-6.052 2.913 0 5.639.89 7.969 2.435A19.804 19.804 0 0 0 20.813.947l-.076-.002C9.757.945.855 9.847.855 20.828c0 10.664 8.394 19.366 18.936 19.86a19.804 19.804 0 0 0 14.196-5.037c-2.33 1.547-5.056 2.435-7.968 2.435-4.733.001-8.974-2.347-11.825-6.05" opacity=".99"/><path fill="url(#b)" d="M14.194 9.625c1.824-2.154 4.181-3.452 6.756-3.452 5.787 0 10.48 6.562 10.48 14.657 0 8.095-4.693 14.658-10.48 14.658-2.575 0-4.932-1.299-6.755-3.453 2.852 3.704 7.092 6.053 11.827 6.053 2.912 0 5.637-.89 7.967-2.434 4.07-3.642 6.632-8.932 6.632-14.824 0-5.89-2.562-11.181-6.63-14.822-2.331-1.546-5.055-2.436-7.968-2.436-4.737 0-8.977 2.349-11.83 6.053" opacity=".99"/><path fill="#141415" d="M71.028 17.463c-1.75 0-3.26.83-4.28 2.145v-1.853h-1.395v16.112h1.395V28.09c1.022 1.314 2.53 2.143 4.28 2.143 3.254 0 5.9-2.864 5.9-6.385 0-3.52-2.646-6.385-5.9-6.385m0 11.386c-2.494 0-4.523-2.244-4.523-5 0-2.757 2.029-5 4.523-5 2.495 0 4.524 2.243 4.524 5-.001 2.756-2.03 5-4.524 5M55.498 12.76c-4.658 0-8.45 3.995-8.45 8.906 0 4.91 3.79 8.906 8.45 8.906 4.66 0 8.45-3.995 8.45-8.906 0-4.911-3.791-8.906-8.45-8.906m0 16.475c-3.925 0-7.118-3.396-7.118-7.57 0-4.173 3.193-7.568 7.118-7.568 3.925 0 7.119 3.394 7.119 7.569 0 4.173-3.194 7.569-7.119 7.569m40.94-11.722a3.13 3.13 0 0 0-1.357.375c-.893.478-1.51 1.206-1.905 2.135-.009.022-.02.044-.03.065l-.012-.002v-2.231h-.002v-.023h-1.395v12.072h1.397v-6.336c0-.89.14-1.615.43-2.32.268-.653.643-1.233 1.182-1.697.633-.545 1.358-.779 2.19-.646.134.021.267.05.407.078.08-.4.27-.908.35-1.313a4.41 4.41 0 0 0-1.255-.157m-12.358-.031c-3.254 0-5.9 2.865-5.9 6.386 0 3.52 2.646 6.384 5.9 6.384 2.328 0 4.344-1.465 5.303-3.588l-1.2-.703c-.72 1.713-2.285 2.907-4.103 2.907-2.356 0-4.296-2.004-4.503-4.55h10.387c.01-.149.016-.299.016-.45 0-3.76-2.426-6.386-5.9-6.386m0 1.385c2.463 0 4.187 1.67 4.476 4.226h-8.939c.338-2.39 2.207-4.226 4.463-4.226m23.495-1.112v1.853c-1.021-1.314-2.529-2.145-4.28-2.145-3.253 0-5.9 2.865-5.9 6.386 0 3.52 2.647 6.385 5.9 6.385 1.751 0 3.26-.83 4.28-2.144v1.815h1.395v-12.15zm-4.28 11.094c-2.494 0-4.523-2.244-4.523-5 0-2.757 2.029-5 4.523-5 2.495 0 4.523 2.243 4.523 5-.001 2.756-2.029 5-4.523 5" opacity=".99"/><path fill="#141415" d="M123.636 30.28c2.951 0 5.171-1.37 6.611-3.164l-2.102-1.794c-1.062 1.322-2.62 2.29-4.509 2.29-3.188 0-5.478-2.36-5.478-5.808 0-3.542 2.243-5.927 5.43-5.927 1.771 0 3.259.756 4.51 2.29l2.102-1.77c-1.748-2.149-4.156-3.211-6.612-3.211-5.383 0-8.405 3.848-8.405 8.618 0 5.501 3.896 8.476 8.453 8.476m13.416.048c1.605 0 2.833-.614 3.659-1.724l.048.024v1.51h2.526V18.617h-2.645v1.393l-.047.024c-.826-1.039-2.101-1.582-3.565-1.582-3.164 0-5.549 2.503-5.549 5.974 0 3.565 2.385 5.903 5.573 5.903m.425-2.409c-1.96 0-3.306-1.44-3.306-3.47 0-2.22 1.464-3.613 3.306-3.613 1.888 0 3.282 1.558 3.282 3.612 0 2.078-1.488 3.471-3.282 3.471m12.207 2.408c2.928 0 4.297-1.559 4.297-3.495 0-2.29-1.535-2.739-3.99-3.707-1.11-.425-1.818-.826-1.818-1.393 0-.708.732-.992 1.251-.992.897 0 1.96.355 2.881 1.228l1.322-2.078c-1.275-1.039-2.597-1.44-4.061-1.44-2.361 0-4.061 1.37-4.061 3.258 0 2.267 1.629 3.117 3.518 3.778 1.511.52 2.266.803 2.266 1.393 0 .685-.59 1.134-1.605 1.134-1.417 0-2.409-.449-3.329-1.346l-1.323 1.983c1.205 1.063 2.787 1.677 4.652 1.677m6.302-.189h2.644v-5.856c0-2.267 1.181-3.447 3.093-3.447 1.582 0 2.503.803 2.503 3.093v6.21h2.644v-6.895c0-3.447-1.77-4.793-4.297-4.793-1.558 0-2.951.543-3.919 1.606h-.024V12.76h-2.644zm19.794.189c3.211 0 5.596-2.338 5.596-5.903 0-3.471-2.385-5.974-5.572-5.974-1.512 0-2.763.52-3.66 1.535h-.024V12.76h-2.644v17.378h2.526v-1.535h.047c.85 1.11 2.078 1.724 3.731 1.724m-.401-2.409c-1.889 0-3.377-1.393-3.377-3.47 0-2.055 1.37-3.613 3.353-3.613 1.842 0 3.329 1.393 3.329 3.612 0 2.03-1.369 3.471-3.305 3.471m13.004 2.41c1.606 0 2.833-.614 3.66-1.724l.047.024v1.51h2.526V18.617h-2.644v1.393l-.047.024c-.827-1.039-2.102-1.582-3.566-1.582-3.163 0-5.548 2.503-5.548 5.974 0 3.565 2.385 5.903 5.572 5.903m.425-2.409c-1.96 0-3.305-1.44-3.305-3.47 0-2.22 1.463-3.613 3.305-3.613 1.889 0 3.282 1.558 3.282 3.612 0 2.078-1.487 3.471-3.282 3.471m13.718 2.408c2.503 0 3.991-.898 4.959-2.15l-1.818-1.605c-.591.78-1.629 1.346-2.904 1.346-2.031 0-3.424-1.416-3.424-3.542 0-2.1 1.369-3.541 3.424-3.541 1.251 0 2.243.543 2.904 1.322l1.794-1.558c-1.157-1.417-3.046-2.149-4.84-2.149-3.495 0-5.974 2.408-5.974 5.95 0 3.518 2.479 5.927 5.879 5.927m6.751-.189h2.645v-3.046l1.865-2.03 3.093 5.076h2.975l-4.226-6.895 4.155-4.628h-3.14l-4.675 5.336-.047-.023V12.76h-2.645z"/><defs><linearGradient id="a" x1="17.422" x2="17.422" y1="1.595" y2="40.134" gradientUnits="userSpaceOnUse"><stop offset=".3" stop-color="#FF1B2D"/><stop offset=".438" stop-color="#FA1A2C"/><stop offset=".594" stop-color="#ED1528"/><stop offset=".758" stop-color="#D60E21"/><stop offset=".927" stop-color="#B70519"/><stop offset="1" stop-color="#A70014"/></linearGradient><linearGradient id="b" x1="27.407" x2="27.407" y1="3.866" y2="37.952" gradientUnits="userSpaceOnUse"><stop stop-color="#9C0000"/><stop offset=".7" stop-color="#FF4B4B"/></linearGradient></defs></svg>