<svg xmlns="http://www.w3.org/2000/svg" width="41" height="40" fill="none"><path fill="url(#a)" d="M14.054 31.27c-2.21-2.61-3.643-6.468-3.74-10.799v-.942c.097-4.33 1.529-8.19 3.74-10.8 2.87-3.726 7.135-6.088 11.897-6.088 2.93 0 5.671.894 8.015 2.45A19.919 19.919 0 0 0 20.713.001L20.638 0c-11.046 0-20 8.954-20 20 0 10.726 8.444 19.479 19.047 19.976a19.928 19.928 0 0 0 14.282-5.066c-2.344 1.555-5.085 2.45-8.015 2.45-4.763 0-9.028-2.363-11.898-6.089z"/><path fill="url(#b)" d="M14.055 8.73c1.835-2.167 4.206-3.473 6.796-3.473 5.82 0 10.541 6.601 10.541 14.744 0 8.142-4.72 14.743-10.542 14.743-2.59 0-4.96-1.306-6.795-3.473 2.87 3.727 7.135 6.089 11.898 6.089 2.93 0 5.67-.894 8.015-2.45A19.948 19.948 0 0 0 40.639 20c0-5.924-2.577-11.246-6.67-14.908-2.345-1.556-5.087-2.451-8.017-2.451-4.763 0-9.028 2.363-11.897 6.089"/><defs><linearGradient id="a" x1="17.303" x2="17.303" y1=".652" y2="39.418" gradientUnits="userSpaceOnUse"><stop offset=".3" stop-color="#FF1B2D"/><stop offset=".438" stop-color="#FA1A2C"/><stop offset=".594" stop-color="#ED1528"/><stop offset=".758" stop-color="#D60E21"/><stop offset=".927" stop-color="#B70519"/><stop offset="1" stop-color="#A70014"/></linearGradient><linearGradient id="b" x1="27.346" x2="27.346" y1="2.937" y2="37.223" gradientUnits="userSpaceOnUse"><stop stop-color="#9C0000"/><stop offset=".7" stop-color="#FF4B4B"/></linearGradient></defs></svg>