<?xml version="1.0" encoding="utf-8"?>
<!-- Generator: Adobe Illustrator 25.3.1, SVG Export Plug-In . SVG Version: 6.00 Build 0)  -->
<svg version="1.1" xmlns="http://www.w3.org/2000/svg" xmlns:xlink="http://www.w3.org/1999/xlink" x="0px" y="0px"
	 viewBox="0 0 155 50" style="enable-background:new 0 0 155 50;" xml:space="preserve">
<style type="text/css">
	.st0{fill:#1F265A;}
	.st1{fill:url(#SVGID_1_);}
</style>
<g id="Layer_1">
	<desc>Created with Sketch.</desc>
</g>
<g id="Layer_2">
	<g>
		<path class="st0" d="M94.1,34.2c-0.2,0.3-6.8,6.6-9.3,4.4c-0.4-0.4-0.5-1.1-0.2-2.1c0.1,0,0.2,0,0.4,0c8.6-1.4,8.8-9.8,4.2-9.8
			c-2.5,0-6,3.5-7.8,7.3c-0.2,0.4-0.4,0.9-0.6,1.3c-2.1,1.8-6.2,4.8-8,3.2c-1.7-1.4,3.1-8.9,5.4-8.9c1,0,0.1,1.7-0.7,3
			c-0.2,0.3,1.9,1.1,2.4,0.1c1.3-3.4,0.6-6-2.7-6c-2.5,0-5.8,3.3-7.7,7.1c-0.8,0.9-4,4.6-5.1,4.6c-1.2,0,3-8.6,3.7-9.6
			c0.4-0.5-3-2.8-3.5-2.2c-0.8,1-2.5,3.8-3.9,7.6c0,0.1-0.1,0.3-0.1,0.4c-0.4,0.3-0.9,0.7-1.3,1C57.5,36.9,55.7,38,54,39
			c-1,0.6-1.5,0.4-1-0.7c0.4-1,1-1.9,1.5-2.8c1.1-1.8,2.4-3.5,3.8-5c0.1-0.1,0.2-0.2,0.2-0.3c0-0.3-0.3-0.5-0.5-0.6
			c-0.2-0.1-0.4-0.2-0.6-0.3c-0.9-0.4-1.8-0.5-2.7-0.6c-0.1,0-0.1,0-0.2,0c-0.1,0-0.2,0-0.4,0c-0.3,0-0.6,0-0.9,0
			c0.1-0.2,0.3-0.5,0.4-0.7c0.3-0.7,0.5-1.4,0.5-2.1c-0.1-0.7-0.5-1.4-1.2-1.7c-0.3-0.1-0.7-0.1-1.1-0.1c-0.2,0-0.4,0-0.6,0.1
			c-1.1,0.2-2.1,0.7-2.9,1.4c-0.8,0.7-1.6,1.7-1.7,2.8c-0.2,1.1,0.5,2.1,1.5,2.6c0.4,0.2,0.8,0.4,1.2,0.5c-0.4,0.4-0.7,0.8-1.1,1.1
			c-1,0.9-2,1.7-3.2,2.4c-0.4,0.3-0.9,0.3-1.2,0.7c-0.4,0.4-0.6,1.2-0.6,1.8c1.4-0.3,2.8-1.4,4-2.3c0.7-0.5,1.4-1.1,2-1.7
			c0.2-0.2,1.5-1.7,1.6-1.6c0.6,0.1,1.2,0.2,1.7,0.4c-0.3-0.1-2.8,4.9-3.1,5.4c-0.7,1.4-1.6,3.7-0.4,5.1c1.5,1.7,4.1,0,5.4-0.9
			c1.8-1.1,3.5-2.3,5.1-3.7c0.1-0.1,0.2-0.2,0.3-0.3c-0.4,3.1,0.5,5.7,2.8,5.7c1,0,3.6-2.9,5.4-5.1c-0.3,2.9,0.6,5.1,3.1,5.1
			c3.1,0,6.6-2.6,8.9-4.7c-0.2,2.7,0.8,4.7,3.1,4.7c5.1,0,11.2-7,11.3-7.1C94.7,35.9,94.4,33.8,94.1,34.2z M89.8,29.4
			c1,0-0.6,4.1-4.7,5.7C86.1,32.4,88.3,29.4,89.8,29.4z M51.1,28.1c0,0.2-0.1,0.3-0.1,0.5c-0.5,0-0.9-0.1-1.4-0.4
			c-0.1,0-0.2-0.1-0.2-0.2c0-0.1,0-0.1-0.1-0.2c-0.1-0.3,0.1-0.7,0.3-0.9c0.2-0.3,0.7-0.5,1.1-0.3C51.2,26.9,51.3,27.6,51.1,28.1z"
			/>
		<path class="st0" d="M154.4,34.2c-0.3,0.4-3.9,4.5-5,4.5c-1.1,0,2.9-8.1,3.5-9c0.3-0.5-2.5-2.4-3.2-2.1c-1.5,0.4-6.2,5.5-9.4,9
			c0.4-1,0.9-2.3,1.5-3.5c0,0,0,0,0,0l0,0c0.8-1.6,1.5-3.1,1.8-3.4c0.3-0.5-2.5-2.4-3.2-2.1c-1.5,0.4-6.7,6-9.8,9.5
			c1.9-4,3.7-8,4-8.6c0.3-0.5-2.8-2.3-3.4-1.7c-0.5,0.5-4,7.4-4,7.4c-0.2,0.2-1.6,1.7-2.8,1.9c1.2-4.3,0.2-8.8-3.4-8.8
			c-1,0-1.6,0.3-2,0.6c-3.1,0.1-5.7,3.5-6.7,7.1c-1.9,1.7-6.5,5.4-8.5,3.6c-1.7-1.4,3.1-8.9,5.4-8.9c1,0,0.1,1.7-0.7,3
			c-0.2,0.3,1.9,1.1,2.4,0.1c1.3-3.4,0.6-6-2.7-6c-2.5,0-6,3.5-7.8,7.3c-2.2,4.7-1.7,9.3,1.8,9.3c3.5,0,7.5-3.3,9.7-5.4
			c-0.1,2.9,1.2,5.4,4.4,5.4c3.6,0,6.2-2.5,7.6-5.6c0.9-0.2,1.7-0.7,2.3-1.1c-0.5,1-0.8,1.9-1,2.3c-0.7,1.7,0.7,4.5,1.9,4.4
			c0.1,0,0.4-0.3,0.7-0.8c1.6-1.7,7.8-8.9,11-12c-1.6,3.3-3.9,8-4.1,8.4c-0.7,1.7,0.7,4.5,1.9,4.4c0.1,0,0.4-0.4,0.8-1.1
			c1.9-2.1,7.1-8.1,10.2-11.2c-0.5,1.1-1.1,2.3-1.6,3.7c-1.5,4.1-1.1,8.5,1.8,8.5c1.5,0,6.6-6.6,6.9-7.1
			C155.1,35.8,154.7,33.7,154.4,34.2z M121.1,37.5c-0.9,1.5-2.3,2.6-4,2.6c-2.9,0-0.2-8.5,2.8-10.5c0.3-0.1,0.5-0.1,0.8-0.1
			c1.2,0,1.7,1.1,1.8,2.6C119.9,32.4,119.6,36.1,121.1,37.5z"/>
		<path class="st0" d="M69.1,26.3c0-0.3,3-3.6,3.4-4.2c0.4-0.6-3.6-2.2-4-1.5c-0.6,1.1-1.8,3.3-2.1,3.8C66.2,24.9,69.2,27,69.1,26.3
			z"/>
		<path class="st0" d="M96,39.8c-0.5-0.2-1.1-0.4-1.6-0.2c-0.3,0.1-0.5,0.3-0.7,0.5c-0.4,0.5-0.8,1.5-0.4,2.2c0,0.1,0.1,0.2,0.1,0.2
			c0.4,0.5,1.9,1,2.5,0.9c0.7-0.1,1.4-1.3,1.5-2C97.6,40.4,97,40.2,96,39.8z"/>
		<path class="st0" d="M58.4,13.7c0-1.6,0-6.7-7.9-7.6c-6.4-0.7-14.2,1.3-19,5.3c-0.3,0.2-0.4,0.6-0.3,1c0.3,1,0.5,2.1,0.7,3.1
			c0.2,0.9,1.3,1.4,1.9,0.9c1.9-1.6,4.4-3.1,7.2-4.2c5.7-2.4,12.1-3.7,14.1-0.9c2.3,3.2-8.5,9.8-15,11.4c1.5-2,4.4-5.6,4.9-6.2
			c0.5-0.6-1.4-3.1-1.8-2.7c-0.4,0.4-5.8,6-8.5,9.1c-0.2,0-0.4,0-0.7,0c0,0,0,0,0,0c-2.1-0.1-4-0.6-4.9-1.8
			c-0.1-0.2-0.3-0.6-0.3-0.7c0-0.1,0-0.3,0-0.3s-0.4-0.4-1.1,0c-0.6,0.4-0.2,1.2-0.2,1.2s0.8,3.3,5.3,3.9c-1.9,2.7-6,12.3-6,14.4
			c0,3.1,6.2,5.3,5.6,3.7C31.7,41,35.6,30.3,38,26.2C42.9,25.9,58.5,22.3,58.4,13.7z"/>
	</g>
	<g>
		
			<linearGradient id="SVGID_1_" gradientUnits="userSpaceOnUse" x1="83.1879" y1="551.261" x2="103.2117" y2="551.261" gradientTransform="matrix(0.9891 0.1471 -0.1471 0.9891 1.6727 -525.3546)">
			<stop  offset="0" style="stop-color:#F37744"/>
			<stop  offset="1" style="stop-color:#EE4370"/>
		</linearGradient>
		<path class="st1" d="M21.7,25.7c-2.4-2.6-6.4-2.8-9-0.4l0,0L11.9,26L8.6,29l-6,5.5l-0.1,0.1l8.6,9.4l10.2-9.3l0,0
			C23.9,32.3,24.1,28.3,21.7,25.7z M18.8,29.5c-0.7,0-1.2-0.6-1.2-1.3c0-0.7,0.6-1.2,1.3-1.2c0.7,0,1.2,0.6,1.2,1.3
			C20.1,29,19.5,29.6,18.8,29.5z"/>
	</g>
	<path class="st0" d="M11.9,26l-0.7-0.8l0,0c0,0,0,0,0,0c-2.4-2.6-6.4-2.8-9-0.4c-2.6,2.4-2.8,6.4-0.4,9c0.2,0.3,0.5,0.5,0.7,0.8
		L8.6,29l2.5,2.7c2,2,4.1,1.5,5.7,0.1c0.2-0.2,0.2-0.4,0-0.6L11.9,26z"/>
	<g>
		<path class="st0" d="M31.9,21c-0.7-2-2.5-2.8-4.9-2.6c-2.5,0.3-6.1,3.5-7.7,5.7c0.2,0.1,0.4,0.2,0.6,0.3c1.4-1.9,4.7-5,7.1-5.2
			c2.1-0.2,3.6,0.1,4.3,2.1c0.6,1.7-0.5,3.4-1.8,4.4c-1.3,1-2.8,1.6-4.4,2c-1.7,0.5-3.5,0.7-5.2,0.7c-0.4,0-0.3,0.6,0.1,0.6
			c1.8,0,3.5-0.3,5.2-0.7c1.8-0.5,3.6-1.2,5-2.4C31.5,24.6,32.5,22.8,31.9,21z"/>
	</g>
</g>
</svg>
