<svg width="222" height="48" fill="none" xmlns="http://www.w3.org/2000/svg"><g clip-path="url(#a)"><path d="M19.75.784.069 6.516l19.683 8.05 16.645-6.708v9.879h3.16V6.517L19.75.783Z" fill="#fac31e"/><path d="M26.555 26.396c0 4.391-3.402 6.952-6.683 6.952-3.28 0-6.682-2.561-6.682-6.952v-11.22l-6.926-2.684v13.904c0 7.44 5.225 13.66 13.487 13.66 8.383 0 13.486-6.22 13.486-13.66V12.492l-6.804 2.806v11.098h.122ZM65.313 26.396c0 5.61-3.888 9.27-7.897 9.27-5.468 0-8.505-3.781-8.505-9.27 0-5.61 3.037-9.269 8.505-9.269 4.01 0 7.897 4.025 7.897 9.27Zm4.253 0c0-7.927-5.225-13.294-11.907-13.294-3.402 0-6.44 1.22-8.748 4.025h-.122v-3.049h-4.252v33.784h4.252V35.788h.122c2.308 2.805 5.346 4.024 8.748 4.024 6.682-.122 11.907-5.488 11.907-13.416ZM109.539 26.396c0 5.367-3.524 9.27-8.262 9.27-4.739 0-8.262-3.903-8.262-9.27 0-5.244 3.523-9.269 8.262-9.269 4.738 0 8.262 4.025 8.262 9.27Zm4.252 0c0-8.415-5.832-13.294-12.514-13.294-7.047 0-12.514 4.879-12.514 13.294 0 8.416 5.831 13.294 12.514 13.294 6.682 0 12.514-4.878 12.514-13.294ZM148.541 38.837V22.98c0-3.415-1.944-5.61-4.617-5.61-2.916 0-5.832 2.805-5.832 6.22v15.246h-4.253V22.98c0-3.415-1.701-5.61-4.617-5.61-3.037 0-5.832 3.049-5.832 6.464v14.88h-4.252v-24.76h4.252v3.05h.122c1.701-2.805 4.617-4.025 6.561-4.025 3.402 0 5.467 1.22 6.682 4.39 2.187-2.438 4.253-4.39 7.898-4.39 5.224 0 7.897 4.025 7.897 8.782v16.953h-4.009v.122ZM164.336 13.956h-4.253v24.759h4.253v-24.76ZM179.888 39.69c-4.86 0-7.898-2.195-9.72-4.634l2.794-3.415c1.215 1.83 4.01 4.024 7.047 4.024 3.038 0 4.253-1.22 4.253-3.78 0-4.391-12.15-3.781-12.15-11.831 0-5 3.645-7.196 7.897-7.196 2.795 0 6.075.976 7.898 3.415l-2.43 3.05c-1.823-1.83-3.645-2.44-5.468-2.44-2.43 0-3.645 1.22-3.645 3.05 0 4.39 12.15 3.048 12.15 11.83-.121 4.512-2.551 7.927-8.626 7.927ZM213.178 23.591H197.87c.607-2.805 3.28-6.464 7.654-6.464 4.496 0 6.925 3.415 7.654 6.464Zm4.617 3.903v-1.098c0-7.927-5.467-13.294-12.15-13.294-6.682 0-12.271 5.367-12.271 13.294 0 7.928 5.589 13.294 12.271 13.294 4.496 0 7.776-1.463 11.057-5.488l-3.645-2.195c-1.944 2.439-4.252 3.659-7.533 3.659-4.374 0-7.776-3.66-8.019-8.172h20.29ZM79.164 23.347v15.49h-4.252V13.956h4.252v3.049h.122c1.458-2.44 3.402-4.025 7.047-4.025v4.635c-3.645-.488-7.169 2.195-7.169 5.732ZM164.943 6.638c0 1.586-1.215 2.683-2.795 2.683-1.458 0-2.794-1.22-2.794-2.683 0-1.585 1.215-2.805 2.794-2.805 1.58.122 2.795 1.342 2.795 2.805ZM219.739 5.052c1.094 0 2.066.976 2.066 2.074 0 1.22-.851 2.073-2.066 2.073a2.052 2.052 0 0 1-2.065-2.073c.121-1.098.972-2.074 2.065-2.074Zm0 .366c-.85 0-1.701.732-1.701 1.708s.729 1.707 1.701 1.707c.972 0 1.701-.731 1.701-1.707 0-.976-.729-1.708-1.701-1.708Zm-.364 2.928h-.365V6.028h.608c.364 0 .607.122.729.122.121.122.243.244.243.488s-.243.488-.486.61c.243 0 .364.244.364.61s.122.488.122.61h-.365c0-.122-.121-.244-.121-.61 0-.244-.243-.366-.486-.366h-.243v.854Zm0-1.342h.243c.243 0 .607-.122.607-.366s-.121-.366-.607-.366h-.243v.732Z" fill="#0482be"/></g><defs><clipPath id="a"><path fill="#fff" transform="translate(.068 .784)" d="M0 0h221.737v46.956H0z"/></clipPath></defs></svg>
