<?xml version="1.0" encoding="UTF-8"?>
<!DOCTYPE svg PUBLIC "-//W3C//DTD SVG 1.1//EN" "http://www.w3.org/Graphics/SVG/1.1/DTD/svg11.dtd">
<svg xmlns="http://www.w3.org/2000/svg" version="1.1" width="1600px" height="300px" style="shape-rendering:geometricPrecision; text-rendering:geometricPrecision; image-rendering:optimizeQuality; fill-rule:evenodd; clip-rule:evenodd" xmlns:xlink="http://www.w3.org/1999/xlink">
<g><path style="opacity:1" fill="#fefefe" d="M -0.5,-0.5 C 532.833,-0.5 1066.17,-0.5 1599.5,-0.5C 1599.5,99.5 1599.5,199.5 1599.5,299.5C 1066.17,299.5 532.833,299.5 -0.5,299.5C -0.5,199.5 -0.5,99.5 -0.5,-0.5 Z"/></g>
<g><path style="opacity:1" fill="#cd0c36" d="M 954.5,11.5 C 955.239,11.369 955.906,11.5357 956.5,12C 918.265,46.4252 884.599,84.5918 855.5,126.5C 851.169,105.176 846.836,83.8425 842.5,62.5C 843.002,61.479 843.668,61.3123 844.5,62C 849.801,68.3021 855.468,74.3021 861.5,80C 862.5,80.6667 863.5,80.6667 864.5,80C 876.939,67.9591 889.939,56.6257 903.5,46C 920.22,33.9819 937.22,22.4819 954.5,11.5 Z"/></g>
<g><path style="opacity:1" fill="#cc0233" d="M 642.5,64.5 C 668.169,64.3334 693.835,64.5 719.5,65C 744.644,68.6428 757.644,83.1428 758.5,108.5C 759.396,125.198 753.396,138.698 740.5,149C 738.158,150.171 735.824,151.338 733.5,152.5C 760.507,164.859 770.007,185.526 762,214.5C 755.511,236.842 740.678,249.508 717.5,252.5C 692.5,252.5 667.5,252.5 642.5,252.5C 642.5,189.833 642.5,127.167 642.5,64.5 Z"/></g>
<g><path style="opacity:1" fill="#cc0334" d="M 784.5,64.5 C 798.5,64.5 812.5,64.5 826.5,64.5C 826.667,116.168 826.5,167.834 826,219.5C 823.14,248.571 809.973,271.571 786.5,288.5C 777.45,277.451 768.783,266.118 760.5,254.5C 773.647,245.222 781.481,232.555 784,216.5C 784.5,165.834 784.667,115.168 784.5,64.5 Z"/></g>
<g><path style="opacity:1" fill="#fefcfd" d="M 684.5,101.5 C 690.176,101.334 695.843,101.501 701.5,102C 710.946,104.204 715.28,110.204 714.5,120C 715.346,128.653 711.679,134.32 703.5,137C 697.175,137.5 690.842,137.666 684.5,137.5C 684.5,125.5 684.5,113.5 684.5,101.5 Z"/></g>
<g><path style="opacity:1" fill="#d32e4b" d="M 925.5,99.5 C 936.686,100.549 940.186,106.215 936,116.5C 930.391,120.716 925.058,120.383 920,115.5C 917.024,108.462 918.857,103.129 925.5,99.5 Z"/></g>
<g><path style="opacity:1" fill="#fceff2" d="M 925.5,101.5 C 934.365,101.847 937.532,106.181 935,114.5C 929.513,120.133 924.846,119.466 921,112.5C 920.333,110.5 920.333,108.5 921,106.5C 922.366,104.638 923.866,102.972 925.5,101.5 Z"/></g>
<g><path style="opacity:1" fill="#d32d4a" d="M 924.5,104.5 C 926.857,104.337 929.19,104.503 931.5,105C 932.022,105.561 932.355,106.228 932.5,107C 931.804,109.896 931.47,112.729 931.5,115.5C 930.996,112.658 929.329,111.325 926.5,111.5C 926.762,112.978 926.429,114.311 925.5,115.5C 924.511,111.893 924.177,108.226 924.5,104.5 Z"/></g>
<g><path style="opacity:1" fill="#fae4e9" d="M 926.5,105.5 C 928.346,105.222 929.68,105.889 930.5,107.5C 929.68,109.111 928.346,109.778 926.5,109.5C 926.5,108.167 926.5,106.833 926.5,105.5 Z"/></g>
<g><path style="opacity:1" fill="#cc0735" d="M 886.5,129.5 C 906.491,126.917 924.824,131.083 941.5,142C 937.69,151.101 933.69,160.101 929.5,169C 928.5,169.667 927.5,169.667 926.5,169C 917.457,162.651 907.457,159.984 896.5,161C 890.241,165.167 889.908,169.833 895.5,175C 905.23,178.846 915.23,181.846 925.5,184C 943.365,191.9 949.865,205.4 945,224.5C 942.335,235.339 936.168,243.506 926.5,249C 898.456,260.999 871.79,258.499 846.5,241.5C 851.183,231.469 855.85,221.469 860.5,211.5C 869.394,217.613 879.061,222.113 889.5,225C 896.009,226.759 901.509,225.259 906,220.5C 907.202,216.207 906.035,212.707 902.5,210C 893.456,206.124 884.122,203.124 874.5,201C 856.841,194.194 849.675,181.361 853,162.5C 858.096,145.237 869.263,134.237 886.5,129.5 Z"/></g>
<g><path style="opacity:1" fill="#fefcfd" d="M 684.5,173.5 C 708.281,169.117 718.448,178.784 715,202.5C 713.601,208.9 709.767,213.066 703.5,215C 697.175,215.5 690.842,215.666 684.5,215.5C 684.5,201.5 684.5,187.5 684.5,173.5 Z"/></g>
<g><path style="opacity:1" fill="#db4d6e" d="M 642.5,64.5 C 642.5,127.167 642.5,189.833 642.5,252.5C 667.5,252.5 692.5,252.5 717.5,252.5C 692.339,253.498 667.005,253.831 641.5,253.5C 641.168,190.331 641.501,127.331 642.5,64.5 Z"/></g>
</svg>
